<?xml version="1.0" encoding="utf-8"?>
<!-- Generator: Adobe Illustrator 17.0.0, SVG Export Plug-In . SVG Version: 6.00 Build 0)  -->
<!DOCTYPE svg PUBLIC "-//W3C//DTD SVG 1.1//EN" "http://www.w3.org/Graphics/SVG/1.1/DTD/svg11.dtd">
<svg version="1.1" id="Layer_1" xmlns="http://www.w3.org/2000/svg" xmlns:xlink="http://www.w3.org/1999/xlink" x="0px" y="0px"
	 width="220px" height="55px" viewBox="306 122.5 220 55" enable-background="new 306 122.5 220 55" xml:space="preserve">
<g>
	
		<radialGradient id="SVGID_1_" cx="99.2675" cy="108.0985" r="14.2017" gradientTransform="matrix(3.4667 0 0 3.4667 -12.1467 -248.21)" gradientUnits="userSpaceOnUse">
		<stop  offset="0.4011" style="stop-color:#005185"/>
		<stop  offset="0.4874" style="stop-color:#0D70A3"/>
		<stop  offset="0.6122" style="stop-color:#70A3CF"/>
		<stop  offset="0.6703" style="stop-color:#94BDE5"/>
		<stop  offset="0.7319" style="stop-color:#A0C4E8"/>
		<stop  offset="0.8453" style="stop-color:#C2D8F0"/>
		<stop  offset="0.997" style="stop-color:#FDFEFE"/>
		<stop  offset="1" style="stop-color:#FFFFFF"/>
	</radialGradient>
	<path fill="url(#SVGID_1_)" d="M358.31,168.967c0,2.474-2.016,4.49-4.49,4.49h-39.858c-2.474,0-4.49-2.016-4.49-4.49v-37.934
		c0-2.474,2.016-4.49,4.49-4.49h39.858c2.474,0,4.49,2.016,4.49,4.49V168.967z"/>
	<rect x="319.093" y="126.452" fill="#0082C4" width="29.596" height="32.345"/>
	<path fill="#ED1C24" d="M337.418,129.109c-1.649,1.283-2.841,2.841-2.566,4.49c0.733,3.482,3.665,4.581,3.848,8.43
		c0.183,3.848-1.832,5.681-2.657,6.597c-0.825,1.008-2.382,2.932-2.932,5.315c0,0-0.733-2.657-1.832-3.757
		c-1.1-1.1-2.382-1.558-3.115-4.49c-0.916-3.299,0.367-4.948-0.092-6.139c-0.275-0.733-1.1-1.558-1.832-2.016
		c0,0,3.573,0.092,5.131,3.757c1.191,2.841,0.641,4.765,0.825,5.498c0.092,0.367,0.367,0.641,0.458,0.641
		c0.092,0,0.916-1.558,0.825-3.024c-0.092-1.466-0.733-3.115-1.924-4.215c-1.191-1.1-1.924-3.207-1.558-5.315
		C330.546,132.957,332.562,129.567,337.418,129.109z"/>
	<g>
		<g>
			<path fill="#FFFFFF" d="M333.203,154.215l1.191-2.749h0.55l-1.558,3.665h-0.55l-1.466-3.665h0.55L333.203,154.215
				C333.112,154.215,333.112,154.215,333.203,154.215L333.203,154.215z"/>
		</g>
		<g>
			<g>
				<path fill="#FFFFFF" d="M321.475,155.223h-0.458v-3.665h1.008c0.183,0,0.367,0.092,0.458,0.367
					c0.092,0.183,0.092,0.458,0.092,0.733c0,0.183,0,0.367-0.092,0.458c0,0.183-0.092,0.275-0.183,0.367
					c-0.091,0.092-0.183,0.092-0.275,0.183c0,0-0.092,0-0.275,0h-0.367v1.558L321.475,155.223L321.475,155.223z M321.475,152.107
					L321.475,152.107v1.1h0.275c0.092,0,0.183,0,0.275-0.092c0.092-0.092,0.092-0.275,0.092-0.458c0-0.183,0-0.367-0.092-0.367
					c-0.092-0.092-0.183-0.092-0.275-0.092h-0.275V152.107z"/>
				<polygon fill="#FFFFFF" points="323.582,154.673 324.682,154.673 324.682,155.223 323.033,155.223 323.033,151.558 
					324.682,151.558 324.682,152.107 323.582,152.107 323.582,153.024 324.59,153.024 324.59,153.482 323.582,153.482 				"/>
				<polygon fill="#FFFFFF" points="325.048,152.107 325.048,151.558 326.698,151.558 326.698,152.107 326.148,152.107 
					326.148,155.223 325.598,155.223 325.598,152.107 				"/>
				<path fill="#FFFFFF" d="M327.706,153.574h-0.092v1.558h-0.458v-3.665h0.916c0.275,0,0.458,0.092,0.55,0.183
					c0.183,0.183,0.183,0.367,0.183,0.733c0,0.275,0,0.458-0.092,0.55c-0.092,0.183-0.183,0.275-0.367,0.275
					c0.183,0,0.275,0.092,0.275,0.183c0.092,0.092,0.092,0.275,0.092,0.458v0.183c0,0.183,0,0.458,0,0.641
					c0,0.183,0,0.367,0.092,0.367v0.092h-0.55c0-0.092,0-0.183-0.092-0.367c0-0.183,0-0.275,0-0.458v-0.183c0-0.183,0-0.275,0-0.367
					s-0.092-0.183-0.183-0.275c0,0-0.092,0-0.183,0C327.981,153.574,327.889,153.574,327.706,153.574L327.706,153.574z
					 M327.614,152.107L327.614,152.107v1.008h0.367c0.092,0,0.183,0,0.183-0.092c0.092-0.092,0.092-0.183,0.092-0.367
					c0-0.183,0-0.275-0.092-0.367s-0.092-0.092-0.275-0.092h-0.275V152.107z"/>
				<path fill="#FFFFFF" d="M329.355,153.574v-0.55c0-0.55,0.092-0.916,0.092-1.191c0.092-0.275,0.367-0.458,0.733-0.458
					c0.366,0,0.642,0.183,0.733,0.458c0.092,0.183,0.183,0.641,0.183,1.191v0.55c0,0.367,0,0.641,0,0.825
					c0,0.275-0.092,0.458-0.275,0.641c-0.092,0.183-0.367,0.183-0.55,0.183c-0.275,0-0.458-0.092-0.55-0.183
					c-0.092-0.092-0.183-0.367-0.275-0.641C329.355,154.306,329.355,153.94,329.355,153.574L329.355,153.574z M329.905,152.932
					L329.905,152.932v1.008c0,0.183,0,0.367,0.092,0.55c0.092,0.183,0.183,0.275,0.275,0.275c0.183,0,0.275-0.092,0.275-0.275
					c0-0.092,0.092-0.275,0.092-0.55v-1.008c0-0.275,0-0.458-0.092-0.55c-0.092-0.183-0.183-0.367-0.275-0.367
					c-0.183,0-0.275,0.092-0.275,0.275c0,0.092-0.092,0.275-0.092,0.55V152.932z"/>
			</g>
			<g>
				<rect x="335.494" y="151.466" fill="#FFFFFF" width="0.458" height="3.665"/>
				<polygon fill="#FFFFFF" points="337.052,154.581 338.151,154.581 338.151,155.131 336.502,155.131 336.502,151.466 
					338.151,151.466 338.151,152.016 337.052,152.016 337.052,152.932 338.06,152.932 338.06,153.482 337.052,153.482 				"/>
				<polygon fill="#FFFFFF" points="338.426,152.016 338.426,151.466 340.076,151.466 340.076,152.016 339.526,152.016 
					339.526,155.131 338.976,155.131 338.976,152.016 				"/>
				<path fill="#FFFFFF" d="M341.633,152.199v-0.733h0.458v3.665h-0.55l-0.367-1.283c-0.092-0.367-0.275-0.825-0.367-1.466
					c0,0.367,0,0.733,0.092,1.008c0,0.092,0,0.275,0,0.55s0,0.367,0,0.458v0.733h-0.458v-3.665h0.55l0.367,1.283
					c0.092,0.183,0.092,0.458,0.183,0.641c0.092,0.183,0.092,0.458,0.183,0.825v-1.008c0-0.183,0-0.367,0-0.458
					C341.725,152.657,341.633,152.474,341.633,152.199z"/>
				<path fill="#FFFFFF" d="M343.099,155.131h-0.55l0.641-3.665h0.641l0.642,3.665h-0.55l-0.092-0.916h-0.55L343.099,155.131
					L343.099,155.131z M343.466,152.657L343.466,152.657l-0.183,1.008h0.458l-0.092-1.008c0-0.092,0-0.183,0-0.183
					c0-0.092,0-0.183,0-0.275v-0.092c0-0.092,0-0.092,0-0.092v0.275c0,0.092,0,0.183,0,0.275
					C343.466,152.474,343.466,152.566,343.466,152.657z"/>
				<path fill="#FFFFFF" d="M345.298,154.032v1.191h-0.458v-3.665h0.733l0.275,1.741c0,0.092,0,0.275,0.092,0.367
					c0,0.183,0,0.275,0,0.458c0-0.183,0-0.275,0-0.458c0-0.092,0-0.183,0.092-0.367l0.275-1.741h0.825v3.665h-0.458v-1.191
					c0-0.275,0-0.55,0-0.825c0-0.825,0-1.283,0-1.374l-0.55,3.299h-0.275l-0.55-3.299l0,0c0,0.275,0,0.55,0,0.825
					C345.298,153.482,345.298,153.94,345.298,154.032z"/>
			</g>
		</g>
	</g>
	<g>
		<g>
			
				<radialGradient id="SVGID_2_" cx="246.2069" cy="923.6464" r="0.6111" gradientTransform="matrix(3.7492 0 0 5.7602 -610.1075 -5154.4443)" gradientUnits="userSpaceOnUse">
				<stop  offset="0.5" style="stop-color:#007BC3"/>
				<stop  offset="0.599" style="stop-color:#006FB2"/>
				<stop  offset="0.8727" style="stop-color:#005387"/>
				<stop  offset="1" style="stop-color:#004776"/>
			</radialGradient>
			<path fill="url(#SVGID_2_)" d="M310.938,162.095h1.924c0.55,0,0.916,0,1.191,0.092c0.275,0.092,0.458,0.183,0.641,0.367
				c0.183,0.183,0.275,0.367,0.275,0.55c0.092,0.183,0.092,0.55,0.092,1.1v0.641c0,0.458-0.092,0.825-0.183,1.1
				c-0.092,0.183-0.275,0.367-0.55,0.55c-0.275,0.092-0.641,0.183-1.008,0.183h-0.458v3.115h-1.924L310.938,162.095L310.938,162.095
				z M312.862,163.378v1.924c0.092,0,0.092,0,0.183,0c0.183,0,0.275,0,0.367-0.092c0.092-0.092,0.092-0.275,0.092-0.55v-0.641
				c0-0.275,0-0.458-0.092-0.55C313.228,163.469,313.045,163.378,312.862,163.378z"/>
		</g>
		<g>
			
				<radialGradient id="SVGID_3_" cx="248.5894" cy="923.6464" r="0.5657" gradientTransform="matrix(3.7492 0 0 5.7602 -614.6703 -5154.4443)" gradientUnits="userSpaceOnUse">
				<stop  offset="0.5" style="stop-color:#007BC3"/>
				<stop  offset="0.599" style="stop-color:#006FB2"/>
				<stop  offset="0.8727" style="stop-color:#005387"/>
				<stop  offset="1" style="stop-color:#004776"/>
			</radialGradient>
			<path fill="url(#SVGID_3_)" d="M315.702,162.095h3.207v1.558h-1.283v1.466h1.191v1.466h-1.191v1.649h1.374v1.558h-3.299V162.095z
				"/>
		</g>
		<g>
			
				<radialGradient id="SVGID_4_" cx="250.8065" cy="923.6464" r="0.6147" gradientTransform="matrix(3.7492 0 0 5.7602 -618.8609 -5154.4443)" gradientUnits="userSpaceOnUse">
				<stop  offset="0.5" style="stop-color:#007BC3"/>
				<stop  offset="0.599" style="stop-color:#006FB2"/>
				<stop  offset="0.8727" style="stop-color:#005387"/>
				<stop  offset="1" style="stop-color:#004776"/>
			</radialGradient>
			<path fill="url(#SVGID_4_)" d="M323.582,162.095v1.558h-1.1v6.139h-1.924v-6.139h-1.1v-1.558H323.582z"/>
		</g>
		<g>
			
				<radialGradient id="SVGID_5_" cx="253.3785" cy="923.6451" r="0.62" gradientTransform="matrix(3.7492 0 0 5.7602 -623.7686 -5154.4443)" gradientUnits="userSpaceOnUse">
				<stop  offset="0.5" style="stop-color:#007BC3"/>
				<stop  offset="0.599" style="stop-color:#006FB2"/>
				<stop  offset="0.8727" style="stop-color:#005387"/>
				<stop  offset="1" style="stop-color:#004776"/>
			</radialGradient>
			<path fill="url(#SVGID_5_)" d="M324.041,162.095h1.374c0.916,0,1.558,0,1.832,0.092c0.367,0.092,0.55,0.275,0.825,0.55
				c0.183,0.275,0.275,0.733,0.275,1.466c0,0.641-0.092,1.008-0.183,1.191c-0.183,0.183-0.458,0.367-0.825,0.367
				c0.367,0.092,0.642,0.183,0.733,0.367c0.092,0.183,0.183,0.275,0.275,0.458c0,0.092,0.092,0.55,0.092,1.1v2.016h-1.741v-2.566
				c0-0.458,0-0.641-0.092-0.733c-0.092-0.092-0.183-0.183-0.458-0.183v3.482h-1.924v-7.606H324.041z M325.965,163.378v1.741
				c0.183,0,0.367,0,0.458-0.092c0.092-0.092,0.092-0.275,0.092-0.641v-0.458c0-0.275,0-0.367-0.092-0.458
				C326.331,163.469,326.24,163.378,325.965,163.378z"/>
		</g>
		<g>
			
				<radialGradient id="SVGID_6_" cx="256.0994" cy="923.6464" r="0.6445" gradientTransform="matrix(3.7492 0 0 5.7602 -629.0005 -5154.4443)" gradientUnits="userSpaceOnUse">
				<stop  offset="0.5" style="stop-color:#007BC3"/>
				<stop  offset="0.599" style="stop-color:#006FB2"/>
				<stop  offset="0.8727" style="stop-color:#005387"/>
				<stop  offset="1" style="stop-color:#004776"/>
			</radialGradient>
			<path fill="url(#SVGID_6_)" d="M333.387,166.585c0,0.733,0,1.283-0.092,1.649c0,0.367-0.183,0.641-0.367,0.916
				c-0.183,0.275-0.458,0.458-0.733,0.641c-0.275,0.183-0.641,0.183-1.1,0.183c-0.367,0-0.733-0.092-1.1-0.183
				c-0.275-0.092-0.55-0.367-0.733-0.641s-0.275-0.55-0.367-0.916c0-0.275-0.092-0.825-0.092-1.649v-1.283
				c0-0.733,0-1.283,0.092-1.649c0-0.275,0.183-0.641,0.367-0.916c0.183-0.275,0.458-0.458,0.733-0.641
				c0.275-0.183,0.641-0.183,1.1-0.183c0.367,0,0.733,0.092,1.1,0.183c0.275,0.092,0.55,0.367,0.733,0.641
				c0.183,0.275,0.275,0.55,0.367,0.916c0,0.275,0.092,0.825,0.092,1.649C333.387,165.302,333.387,166.585,333.387,166.585z
				 M331.462,164.111c0-0.367,0-0.55-0.092-0.641c0-0.092-0.092-0.183-0.275-0.183c-0.092,0-0.183,0-0.183,0.092
				c-0.092,0.092-0.092,0.275-0.092,0.733v3.574c0,0.458,0,0.733,0.092,0.825c0,0.092,0.092,0.183,0.275,0.183
				c0.092,0,0.183-0.092,0.275-0.183c0-0.092,0.092-0.367,0.092-0.825v-3.574H331.462z"/>
		</g>
		<g>
			
				<radialGradient id="SVGID_7_" cx="258.8178" cy="923.6454" r="0.6411" gradientTransform="matrix(3.7492 0 0 5.7602 -634.1603 -5154.4443)" gradientUnits="userSpaceOnUse">
				<stop  offset="0.5" style="stop-color:#007BC3"/>
				<stop  offset="0.599" style="stop-color:#006FB2"/>
				<stop  offset="0.8727" style="stop-color:#005387"/>
				<stop  offset="1" style="stop-color:#004776"/>
			</radialGradient>
			<path fill="url(#SVGID_7_)" d="M338.243,164.386h-1.832v-0.55c0-0.275,0-0.458-0.092-0.55c0-0.092-0.092-0.092-0.183-0.092
				c-0.092,0-0.183,0.092-0.275,0.183c-0.092,0.092-0.092,0.275-0.092,0.458c0,0.275,0,0.458,0.092,0.55
				c0.092,0.092,0.275,0.275,0.55,0.458c0.825,0.55,1.374,1.008,1.649,1.283c0.183,0.367,0.367,0.916,0.367,1.649
				c0,0.55-0.092,0.916-0.183,1.191c-0.092,0.275-0.367,0.458-0.733,0.641c-0.367,0.183-0.733,0.275-1.191,0.275
				c-0.55,0-0.916-0.092-1.283-0.275c-0.367-0.183-0.641-0.458-0.733-0.733c-0.092-0.275-0.183-0.733-0.183-1.374v-0.458h1.741
				v0.916c0,0.275,0,0.458,0.092,0.55c0.092,0.092,0.183,0.092,0.275,0.092c0.092,0,0.183-0.092,0.275-0.183
				c0.092-0.092,0.092-0.275,0.092-0.458c0-0.458-0.092-0.733-0.183-0.916c-0.092-0.183-0.458-0.367-0.916-0.733
				c-0.458-0.367-0.825-0.55-0.916-0.733c-0.183-0.183-0.275-0.367-0.367-0.641c-0.092-0.275-0.183-0.641-0.183-1.008
				c0-0.55,0.092-1.008,0.183-1.283c0.183-0.275,0.367-0.458,0.733-0.641c0.275-0.183,0.733-0.183,1.191-0.183
				c0.458,0,0.916,0.092,1.283,0.275c0.367,0.183,0.55,0.367,0.733,0.641c0.092,0.275,0.183,0.641,0.183,1.283v0.367
				L338.243,164.386L338.243,164.386z"/>
		</g>
		<g>
			
				<radialGradient id="SVGID_8_" cx="261.293" cy="923.6464" r="0.5658" gradientTransform="matrix(3.7492 0 0 5.7602 -638.8781 -5154.4443)" gradientUnits="userSpaceOnUse">
				<stop  offset="0.5" style="stop-color:#007BC3"/>
				<stop  offset="0.599" style="stop-color:#006FB2"/>
				<stop  offset="0.8727" style="stop-color:#005387"/>
				<stop  offset="1" style="stop-color:#004776"/>
			</radialGradient>
			<path fill="url(#SVGID_8_)" d="M339.068,162.095h3.207v1.558h-1.283v1.466h1.191v1.466h-1.191v1.649h1.374v1.558h-3.299V162.095z
				"/>
		</g>
		<g>
			
				<radialGradient id="SVGID_9_" cx="263.5469" cy="923.6464" r="0.6148" gradientTransform="matrix(3.7492 0 0 5.7602 -643.0686 -5154.4443)" gradientUnits="userSpaceOnUse">
				<stop  offset="0.5" style="stop-color:#007BC3"/>
				<stop  offset="0.599" style="stop-color:#006FB2"/>
				<stop  offset="0.8727" style="stop-color:#005387"/>
				<stop  offset="1" style="stop-color:#004776"/>
			</radialGradient>
			<path fill="url(#SVGID_9_)" d="M347.131,162.095v1.558h-1.1v6.139h-1.924v-6.139h-1.1v-1.558H347.131z"/>
		</g>
		<g>
			
				<radialGradient id="SVGID_10_" cx="266.2121" cy="923.6454" r="0.6504" gradientTransform="matrix(3.7492 0 0 5.7602 -648.0384 -5154.4443)" gradientUnits="userSpaceOnUse">
				<stop  offset="0.5" style="stop-color:#007BC3"/>
				<stop  offset="0.599" style="stop-color:#006FB2"/>
				<stop  offset="0.8727" style="stop-color:#005387"/>
				<stop  offset="1" style="stop-color:#004776"/>
			</radialGradient>
			<path fill="url(#SVGID_10_)" d="M352.354,165.485h-1.924v-1.374c0-0.367,0-0.641-0.092-0.733c0-0.092-0.092-0.183-0.275-0.183
				s-0.275,0.092-0.275,0.183c0,0.092-0.092,0.367-0.092,0.733v3.574c0,0.367,0,0.641,0.092,0.733c0,0.092,0.183,0.183,0.275,0.183
				c0.183,0,0.275-0.092,0.275-0.183c0-0.092,0.092-0.367,0.092-0.825v-1.008h1.924v0.275c0,0.825-0.092,1.374-0.183,1.649
				c-0.092,0.367-0.367,0.641-0.733,0.916c-0.367,0.275-0.825,0.367-1.374,0.367s-1.008-0.092-1.374-0.275
				c-0.367-0.183-0.641-0.55-0.733-0.916c-0.092-0.367-0.183-0.916-0.183-1.649v-2.199c0-0.55,0-1.008,0.092-1.283
				c0-0.275,0.183-0.55,0.367-0.825c0.183-0.275,0.458-0.458,0.733-0.641c0.275-0.183,0.733-0.183,1.1-0.183
				c0.55,0,1.008,0.092,1.374,0.367c0.367,0.183,0.641,0.55,0.733,0.825c0.092,0.367,0.183,0.825,0.183,1.558L352.354,165.485
				L352.354,165.485z"/>
		</g>
		<g>
			
				<radialGradient id="SVGID_11_" cx="268.9968" cy="923.6464" r="0.6447" gradientTransform="matrix(3.7492 0 0 5.7602 -653.3323 -5154.4443)" gradientUnits="userSpaceOnUse">
				<stop  offset="0.5" style="stop-color:#007BC3"/>
				<stop  offset="0.599" style="stop-color:#006FB2"/>
				<stop  offset="0.8727" style="stop-color:#005387"/>
				<stop  offset="1" style="stop-color:#004776"/>
			</radialGradient>
			<path fill="url(#SVGID_11_)" d="M357.393,166.585c0,0.733,0,1.283-0.092,1.649c0,0.367-0.183,0.641-0.367,0.916
				c-0.183,0.275-0.458,0.458-0.733,0.641c-0.275,0.183-0.641,0.183-1.1,0.183c-0.367,0-0.733-0.092-1.1-0.183
				c-0.275-0.092-0.55-0.367-0.733-0.641s-0.275-0.55-0.367-0.916c0-0.275-0.092-0.825-0.092-1.649v-1.283
				c0-0.733,0-1.283,0.092-1.649c0-0.275,0.183-0.641,0.367-0.916c0.183-0.275,0.458-0.458,0.733-0.641
				c0.275-0.183,0.641-0.183,1.1-0.183c0.367,0,0.733,0.092,1.1,0.183c0.275,0.092,0.55,0.367,0.733,0.641
				c0.183,0.275,0.275,0.55,0.367,0.916c0,0.275,0.092,0.825,0.092,1.649V166.585z M355.469,164.111c0-0.367,0-0.55-0.092-0.641
				c0-0.092-0.092-0.183-0.275-0.183c-0.092,0-0.183,0-0.275,0.092s-0.092,0.275-0.092,0.733v3.574c0,0.458,0,0.733,0.092,0.825
				c0,0.092,0.092,0.183,0.275,0.183c0.092,0,0.183-0.092,0.275-0.183c0-0.092,0.092-0.367,0.092-0.825V164.111z"/>
		</g>
	</g>
	<g>
		<path fill="#FFFFFF" d="M314.694,162.645c-0.183-0.183-0.367-0.275-0.642-0.367c-0.275-0.092-0.641-0.092-1.191-0.092h-1.924
			v0.183h1.558c0.55,0,0.916,0,1.191,0.092c0.275,0.092,0.458,0.183,0.642,0.367c0.183,0.183,0.275,0.367,0.275,0.55
			c0.092,0.275,0.092,0.55,0.092,1.1v0.641c0,0.458-0.092,0.825-0.183,1.1c0,0.092-0.092,0.183-0.183,0.275l0,0
			c0.275-0.092,0.458-0.275,0.55-0.55c0.092-0.183,0.183-0.55,0.183-1.1v-0.641c0-0.458,0-0.825-0.092-1.1
			C314.878,162.92,314.786,162.736,314.694,162.645z"/>
	</g>
	<g>
		<path fill="#FFFFFF" d="M312.862,165.394v-1.741c-0.092,0-0.183,0-0.367,0v1.924c0.092,0,0.092,0,0.092,0
			c0.183,0,0.275,0,0.367-0.092v-0.092C312.953,165.394,312.953,165.394,312.862,165.394
			C312.953,165.394,312.862,165.394,312.862,165.394z"/>
	</g>
	<g>
		<rect x="312.495" y="166.86" fill="#FFFFFF" width="0.367" height="2.841"/>
	</g>
	<g>
		<polygon fill="#FFFFFF" points="317.26,165.302 318.451,165.302 318.451,166.585 318.818,166.585 318.818,165.119 
			317.626,165.119 317.626,163.836 317.26,163.836 		"/>
	</g>
	<g>
		<polygon fill="#FFFFFF" points="318.543,163.653 318.909,163.653 318.909,162.095 315.702,162.095 315.702,162.278 
			318.543,162.278 		"/>
	</g>
	<g>
		<polygon fill="#FFFFFF" points="317.626,166.768 317.26,166.768 317.26,168.417 318.635,168.417 318.635,169.792 319.001,169.792 
			319.001,168.234 317.626,168.234 		"/>
	</g>
	<g>
		<rect x="322.116" y="163.836" fill="#FFFFFF" width="0.367" height="5.956"/>
	</g>
	<g>
		<polygon fill="#FFFFFF" points="319.367,162.278 323.216,162.278 323.216,163.653 323.582,163.653 323.582,162.095 
			319.367,162.095 		"/>
	</g>
	<g>
		<path fill="#FFFFFF" d="M325.965,163.653c-0.092,0-0.183-0.092-0.367-0.092v1.741c0.183,0,0.367,0,0.458-0.092l0.092-0.092
			c-0.092,0-0.092,0-0.183,0V163.653z"/>
	</g>
	<g>
		<path fill="#FFFFFF" d="M326.881,162.462c0.367,0.092,0.55,0.275,0.825,0.55c0.183,0.275,0.275,0.733,0.275,1.466
			c0,0.641-0.092,1.008-0.183,1.191c0,0,0,0-0.092,0.092c0.183-0.092,0.275-0.183,0.367-0.275c0.183-0.183,0.183-0.641,0.183-1.191
			c0-0.641-0.092-1.1-0.275-1.466c-0.183-0.275-0.458-0.458-0.825-0.55c-0.275-0.092-0.916-0.092-1.832-0.092h-1.374v0.183h1.008
			C325.965,162.278,326.606,162.37,326.881,162.462z"/>
	</g>
	<g>
		<path fill="#FFFFFF" d="M325.598,169.792h0.367v-3.207c-0.092,0-0.183,0-0.367,0V169.792z"/>
	</g>
	<g>
		<path fill="#FFFFFF" d="M327.706,166.401c0.092,0.183,0.183,0.275,0.275,0.458c0,0.092,0.092,0.55,0.092,1.1v1.832h0.367v-2.016
			c0-0.641,0-1.008-0.092-1.1c0-0.092-0.092-0.275-0.275-0.458c-0.092-0.092-0.275-0.275-0.55-0.367
			c-0.183,0.092-0.367,0.092-0.55,0.183C327.339,166.035,327.614,166.218,327.706,166.401z"/>
	</g>
	<g>
		<path fill="#FFFFFF" d="M330.913,168.509c0-0.092-0.092-0.367-0.092-0.825v-3.574c0-0.275,0-0.458,0-0.641c0,0,0,0-0.092,0
			c-0.092,0-0.183,0-0.183,0.092c-0.092,0.092-0.092,0.275-0.092,0.733v3.574c0,0.458,0,0.733,0.092,0.825
			c0,0.092,0.092,0.183,0.275,0.183c0.092,0,0.183-0.092,0.275-0.183l0,0C331.004,168.601,330.913,168.601,330.913,168.509z"/>
	</g>
	<g>
		<path fill="#FFFFFF" d="M333.02,162.736c-0.183-0.275-0.458-0.458-0.733-0.641c-0.275-0.092-0.642-0.183-1.1-0.183
			c-0.458,0-0.825,0.092-1.1,0.183c-0.183,0.092-0.275,0.183-0.367,0.183l0,0c0.275-0.183,0.641-0.183,1.1-0.183
			c0.367,0,0.733,0.092,1.1,0.183c0.275,0.092,0.55,0.367,0.733,0.641c0.183,0.275,0.275,0.55,0.367,0.916
			c0,0.275,0.092,0.825,0.092,1.649v1.283c0,0.733,0,1.283-0.092,1.649c0,0.367-0.183,0.641-0.367,0.916
			c-0.092,0.183-0.183,0.275-0.367,0.367c0.275-0.183,0.55-0.367,0.733-0.55c0.183-0.275,0.275-0.55,0.367-0.916
			c0-0.275,0.092-0.825,0.092-1.649v-1.283c0-0.825,0-1.374-0.092-1.649C333.295,163.286,333.203,163.011,333.02,162.736z"/>
	</g>
	<g>
		<path fill="#FFFFFF" d="M336.41,164.844c-0.275-0.183-0.458-0.367-0.55-0.458c-0.092-0.092-0.092-0.367-0.092-0.55
			c0-0.183,0-0.275,0.092-0.367l0,0c-0.092,0-0.183,0.092-0.275,0.183c-0.092,0-0.092,0.183-0.092,0.367c0,0.275,0,0.458,0.092,0.55
			c0.092,0.092,0.275,0.275,0.55,0.458c0.825,0.55,1.374,0.916,1.649,1.283c0.183,0.367,0.367,0.916,0.367,1.649
			c0,0.55-0.092,0.916-0.183,1.191c-0.092,0.183-0.183,0.275-0.367,0.458c0.367-0.183,0.55-0.367,0.733-0.641
			c0.092-0.275,0.183-0.641,0.183-1.191c0-0.733-0.092-1.283-0.367-1.649C337.877,165.852,337.327,165.394,336.41,164.844z"/>
	</g>
	<g>
		<path fill="#FFFFFF" d="M337.052,162.37c0.367,0.183,0.55,0.367,0.733,0.641c0.092,0.275,0.183,0.641,0.183,1.283v0.092h0.275
			v-0.275c0-0.641-0.092-1.008-0.183-1.283c-0.092-0.275-0.367-0.458-0.733-0.641c-0.367-0.183-0.733-0.275-1.283-0.275
			c-0.458,0-0.825,0.092-1.191,0.183c-0.092,0.092-0.275,0.092-0.367,0.183c0.367-0.183,0.733-0.183,1.191-0.183
			C336.227,162.187,336.685,162.278,337.052,162.37z"/>
	</g>
	<g>
		<path fill="#FFFFFF" d="M335.494,168.142c0,0.275,0,0.458,0.092,0.55c0.092,0.092,0.183,0.092,0.275,0.092
			c0.092,0,0.183-0.092,0.275-0.183c0,0,0,0,0-0.092c-0.092,0-0.183,0-0.275-0.092c-0.092-0.092-0.092-0.275-0.092-0.55v-0.916
			h-1.741v0.183h1.466V168.142z"/>
	</g>
	<g>
		<polygon fill="#FFFFFF" points="340.717,165.302 341.908,165.302 341.908,166.585 342.183,166.585 342.183,165.119 
			340.992,165.119 340.992,163.836 340.717,163.836 		"/>
	</g>
	<g>
		<polygon fill="#FFFFFF" points="340.992,166.768 340.717,166.768 340.717,168.417 342.091,168.417 342.091,169.792 
			342.458,169.792 342.458,168.234 340.992,168.234 		"/>
	</g>
	<g>
		<polygon fill="#FFFFFF" points="342,163.653 342.275,163.653 342.275,162.095 339.068,162.095 339.068,162.278 342,162.278 		"/>
	</g>
	<g>
		<rect x="345.665" y="163.836" fill="#FFFFFF" width="0.367" height="5.956"/>
	</g>
	<g>
		<polygon fill="#FFFFFF" points="342.916,162.278 346.764,162.278 346.764,163.653 347.131,163.653 347.131,162.095 
			342.916,162.095 		"/>
	</g>
	<g>
		<path fill="#FFFFFF" d="M351.437,162.278c-0.367-0.183-0.825-0.367-1.466-0.367c-0.458,0-0.825,0.092-1.1,0.183
			c-0.183,0.092-0.275,0.183-0.367,0.275c0,0,0,0,0.092,0c0.275-0.183,0.733-0.183,1.1-0.183c0.55,0,1.008,0.092,1.374,0.367
			c0.367,0.183,0.642,0.55,0.733,0.825c0.092,0.367,0.183,0.825,0.183,1.558v0.55h0.367v-0.733c0-0.733-0.092-1.283-0.183-1.558
			C351.987,162.828,351.804,162.553,351.437,162.278z"/>
	</g>
	<g>
		<path fill="#FFFFFF" d="M351.987,167.226c0,0.825-0.092,1.374-0.183,1.649c-0.092,0.275-0.275,0.55-0.641,0.825
			c0.092,0,0.183-0.092,0.275-0.183c0.367-0.275,0.641-0.55,0.733-0.916c0.091-0.367,0.183-0.916,0.183-1.649v-0.275h-1.924v0.183
			h1.558L351.987,167.226L351.987,167.226z"/>
	</g>
	<g>
		<path fill="#FFFFFF" d="M349.422,163.653c0,0.092-0.092,0.367-0.092,0.733v3.574c0,0.367,0,0.641,0.092,0.733
			c0,0.092,0.092,0.183,0.275,0.183s0.275-0.092,0.275-0.183l0,0c-0.092,0-0.183-0.092-0.275-0.183c0-0.092-0.092-0.367-0.092-0.733
			v-3.574c0-0.367,0-0.641,0.092-0.733l0,0C349.605,163.469,349.422,163.469,349.422,163.653z"/>
	</g>
	<g>
		<path fill="#FFFFFF" d="M357.393,163.653c0-0.275-0.183-0.641-0.367-0.916c-0.183-0.275-0.458-0.458-0.733-0.641
			c-0.275-0.092-0.642-0.183-1.1-0.183c-0.458,0-0.825,0.092-1.1,0.183c-0.183,0.092-0.275,0.183-0.367,0.183l0,0
			c0.275-0.183,0.642-0.183,1.1-0.183c0.367,0,0.733,0.092,1.1,0.183c0.275,0.092,0.55,0.367,0.733,0.641s0.275,0.55,0.367,0.916
			c0,0.275,0.092,0.825,0.092,1.649v1.283c0,0.733,0,1.283-0.092,1.649c0,0.367-0.183,0.641-0.367,0.916
			c-0.092,0.183-0.183,0.275-0.367,0.367c0.275-0.183,0.55-0.367,0.733-0.55c0.183-0.275,0.275-0.55,0.367-0.916
			c0-0.275,0.092-0.825,0.092-1.649v-1.283C357.393,164.477,357.393,163.927,357.393,163.653z"/>
	</g>
	<g>
		<path fill="#FFFFFF" d="M354.919,168.509c0-0.092-0.092-0.367-0.092-0.825v-3.574c0-0.275,0-0.458,0-0.641c0,0,0,0-0.092,0
			c-0.092,0-0.183,0-0.275,0.092c-0.092,0.092-0.092,0.275-0.092,0.733v3.574c0,0.458,0,0.733,0.092,0.825
			c0,0.092,0.092,0.183,0.275,0.183c0.092,0,0.183-0.092,0.275-0.183l0,0C355.011,168.601,355.011,168.601,354.919,168.509z"/>
	</g>
	<g>
		<path fill="#004776" d="M313.687,163.011c-0.092-0.092-0.275-0.183-0.55-0.183v0.55c0.092,0,0.092,0,0.092,0.092
			c0.092,0.092,0.092,0.275,0.092,0.55v0.641c0,0.092,0,0.092,0,0.183c0.092,0,0.183-0.092,0.275-0.092
			c0.092-0.092,0.092-0.275,0.092-0.55v-0.641C313.778,163.195,313.778,163.103,313.687,163.011z"/>
		<path fill="#004776" d="M313.687,166.127h-0.55v0.55h0.183c0.458,0,0.733-0.092,1.008-0.183c0.275-0.091,0.458-0.275,0.55-0.55
			c0-0.092,0-0.092,0.092-0.183c-0.092,0.092-0.183,0.092-0.275,0.183C314.42,166.035,314.145,166.127,313.687,166.127z"/>
		<polygon fill="#004776" points="311.304,162.095 310.938,162.095 310.938,169.792 312.862,169.792 312.862,169.242 
			311.304,169.242 		"/>
		<rect x="317.993" y="163.103" fill="#004776" width="0.916" height="0.55"/>
		<polygon fill="#004776" points="316.069,162.095 315.702,162.095 315.702,169.792 319.001,169.792 319.001,169.242 
			316.069,169.242 		"/>
		<rect x="317.993" y="166.035" fill="#004776" width="0.825" height="0.55"/>
		<rect x="322.758" y="163.103" fill="#004776" width="0.825" height="0.55"/>
		<polygon fill="#004776" points="320.834,163.103 319.734,163.103 319.734,162.095 319.367,162.095 319.367,163.653 
			320.467,163.653 320.467,169.792 322.391,169.792 322.391,169.242 320.834,169.242 		"/>
		<path fill="#004776" d="M326.789,163.011c-0.092-0.092-0.275-0.183-0.458-0.183v0.641c0,0,0.092,0,0.092,0.092
			c0.092,0.092,0.092,0.275,0.092,0.458v0.458c0,0.092,0,0.092,0,0.092c0.092,0,0.183,0,0.275-0.092
			c0.092-0.092,0.092-0.275,0.092-0.641v-0.458C326.881,163.195,326.881,163.011,326.789,163.011z"/>
		<path fill="#004776" d="M326.881,166.676c0-0.367,0-0.641-0.092-0.733c-0.092-0.092-0.183-0.183-0.458-0.183v0.641
			c0.092,0,0.092,0.092,0.092,0.092c0.092,0.092,0.092,0.367,0.092,0.733v2.566h1.741v-0.55h-1.466v-2.566L326.881,166.676
			L326.881,166.676z"/>
		<polygon fill="#004776" points="324.407,162.095 324.041,162.095 324.041,169.792 325.965,169.792 325.965,169.242 
			324.407,169.242 		"/>
		<path fill="#004776" d="M331.554,162.736c-0.092,0-0.183,0-0.183,0.092c0,0.092-0.092,0.183-0.092,0.458
			c0.092,0,0.183,0.092,0.183,0.183c0,0.092,0.092,0.367,0.092,0.641v3.482c0,0.183,0,0.367,0,0.458c0,0,0,0,0.092,0
			s0.183-0.092,0.275-0.183c0-0.092,0.092-0.367,0.092-0.825v-3.482c0-0.367,0-0.55-0.092-0.641
			C331.737,162.736,331.646,162.736,331.554,162.736z"/>
		<path fill="#004776" d="M331.554,169.425c-0.367,0-0.733-0.092-1.1-0.183c-0.275-0.092-0.55-0.367-0.733-0.641
			s-0.275-0.55-0.367-0.916c0-0.275-0.092-0.825-0.092-1.649v-1.283c0-0.733,0-1.283,0.092-1.649c0-0.183,0.092-0.367,0.183-0.55
			c-0.092,0.092-0.092,0.092-0.183,0.183c-0.183,0.275-0.275,0.55-0.367,0.916c0,0.367-0.092,0.825-0.092,1.649v1.283
			c0,0.825,0,1.374,0.092,1.649c0,0.275,0.183,0.641,0.367,0.916c0.183,0.275,0.458,0.458,0.733,0.641
			c0.275,0.092,0.641,0.183,1.1,0.183c0.458,0,0.733-0.092,1.1-0.183c0.275-0.183,0.55-0.367,0.733-0.641
			c0.092-0.092,0.183-0.183,0.183-0.367c-0.183,0.183-0.367,0.275-0.55,0.367C332.287,169.334,331.921,169.425,331.554,169.425z"/>
		<path fill="#004776" d="M336.594,169.425c-0.55,0-0.916-0.092-1.283-0.275c-0.367-0.183-0.642-0.458-0.733-0.733
			c-0.092-0.275-0.183-0.733-0.183-1.283h-0.367v0.458c0,0.55,0.092,1.008,0.183,1.374c0.092,0.275,0.367,0.55,0.733,0.733
			c0.367,0.183,0.825,0.275,1.283,0.275c0.458,0,0.916-0.092,1.191-0.275c0.367-0.183,0.55-0.367,0.733-0.641
			c0-0.092,0.092-0.092,0.092-0.183c-0.092,0.092-0.275,0.183-0.458,0.275C337.51,169.334,337.052,169.425,336.594,169.425z"/>
		<path fill="#004776" d="M336.777,163.286c0-0.275,0-0.458-0.092-0.55c-0.092-0.092-0.092-0.092-0.183-0.092
			c-0.092,0-0.183,0.092-0.275,0.183c-0.092,0.092-0.092,0.183-0.092,0.367c0.092,0,0.183,0,0.183,0.092s0.092,0.275,0.092,0.458
			v0.55h1.832v-0.275c0-0.092,0-0.183,0-0.275h-1.374v-0.458H336.777z"/>
		<path fill="#004776" d="M336.227,166.951c0.092,0.092,0.183,0.092,0.183,0.183c0.092,0.183,0.183,0.458,0.183,0.916v0.092
			c0.092,0,0.183-0.092,0.275-0.183c0.092-0.092,0.092-0.275,0.092-0.458c0-0.458-0.092-0.733-0.183-0.916
			c-0.092-0.183-0.458-0.367-0.916-0.733c-0.458-0.367-0.825-0.55-0.916-0.733c-0.183-0.183-0.275-0.367-0.367-0.641
			s-0.183-0.641-0.183-1.008c0-0.458,0.092-0.825,0.092-1.1c-0.092,0.092-0.183,0.183-0.275,0.367
			c-0.183,0.275-0.183,0.733-0.183,1.283c0,0.367,0.092,0.733,0.183,1.008c0.092,0.275,0.275,0.458,0.367,0.641
			c0.183,0.183,0.458,0.367,0.916,0.733c0,0,0,0,0.092,0l0.367,0.275L336.227,166.951z"/>
		<polygon fill="#004776" points="339.434,162.095 339.068,162.095 339.068,169.792 342.458,169.792 342.458,169.242 
			339.434,169.242 		"/>
		<rect x="341.358" y="163.103" fill="#004776" width="0.916" height="0.55"/>
		<rect x="341.358" y="166.035" fill="#004776" width="0.825" height="0.55"/>
		<rect x="346.306" y="163.103" fill="#004776" width="0.825" height="0.55"/>
		<polygon fill="#004776" points="344.382,163.103 343.283,163.103 343.283,162.095 342.916,162.095 342.916,163.653 
			344.015,163.653 344.015,169.792 345.94,169.792 345.94,169.242 344.382,169.242 		"/>
		<path fill="#004776" d="M350.704,167.959c0-0.092,0.092-0.367,0.092-0.825v-0.458h-0.367v1.008c0,0.183,0,0.275,0,0.458l0,0
			C350.521,168.051,350.613,168.051,350.704,167.959z"/>
		<path fill="#004776" d="M350.796,163.561c0-0.367,0-0.641-0.092-0.733c0-0.092-0.092-0.183-0.275-0.183s-0.275,0.092-0.275,0.183
			c0,0.092,0,0.183-0.092,0.367c0.183,0,0.183,0.092,0.275,0.183c0,0.092,0.092,0.367,0.092,0.733v1.374h1.924v-0.55h-1.558V163.561
			z"/>
		<path fill="#004776" d="M350.43,169.425c-0.55,0-1.008-0.092-1.374-0.275c-0.367-0.183-0.641-0.55-0.733-0.916
			c-0.092-0.367-0.183-0.916-0.183-1.649v-2.199c0-0.55,0-1.008,0.092-1.283c0-0.183,0.092-0.275,0.092-0.458
			c-0.092,0.092-0.092,0.092-0.183,0.183c-0.183,0.275-0.275,0.55-0.367,0.825c0,0.275-0.092,0.733-0.092,1.283v2.199
			c0,0.733,0.092,1.283,0.183,1.649c0.092,0.367,0.367,0.641,0.733,0.916c0.367,0.183,0.825,0.275,1.374,0.275
			s1.008-0.092,1.374-0.367c0.367-0.275,0.55-0.55,0.733-0.825c-0.092,0.092-0.183,0.183-0.367,0.275
			C351.437,169.242,350.979,169.425,350.43,169.425z"/>
		<path fill="#004776" d="M355.561,162.736c-0.092,0-0.183,0-0.275,0.092c0,0.092-0.092,0.183-0.092,0.458
			c0.092,0,0.183,0.092,0.183,0.183c0,0.092,0.092,0.367,0.092,0.641v3.482c0,0.183,0,0.367,0,0.458c0,0,0,0,0.092,0
			s0.183-0.092,0.275-0.183c0-0.092,0.092-0.367,0.092-0.825v-3.482c0-0.367,0-0.55-0.092-0.641
			C355.744,162.736,355.652,162.736,355.561,162.736z"/>
		<path fill="#004776" d="M355.561,169.425c-0.367,0-0.733-0.092-1.1-0.183c-0.275-0.092-0.55-0.367-0.733-0.641
			s-0.275-0.55-0.367-0.916c0-0.275-0.092-0.825-0.092-1.649v-1.283c0-0.733,0-1.283,0.092-1.649c0-0.183,0.092-0.367,0.183-0.55
			c-0.092,0.092-0.092,0.092-0.183,0.183c-0.183,0.275-0.275,0.55-0.367,0.916c0,0.367-0.092,0.825-0.092,1.649v1.283
			c0,0.825,0,1.374,0.092,1.649c0,0.275,0.183,0.641,0.367,0.916c0.183,0.275,0.458,0.458,0.733,0.641
			c0.275,0.092,0.642,0.183,1.1,0.183c0.458,0,0.825-0.092,1.1-0.183c0.275-0.183,0.55-0.367,0.733-0.641
			c0.092-0.092,0.092-0.183,0.183-0.367c-0.183,0.183-0.367,0.275-0.55,0.367C356.294,169.334,355.927,169.425,355.561,169.425z"/>
	</g>
	
		<linearGradient id="SVGID_12_" gradientUnits="userSpaceOnUse" x1="99.8175" y1="122.7965" x2="99.8175" y2="106.9378" gradientTransform="matrix(3.4667 0 0 3.4667 -12.1467 -248.21)">
		<stop  offset="0.7967" style="stop-color:#004776"/>
		<stop  offset="0.8619" style="stop-color:#096898"/>
		<stop  offset="0.9561" style="stop-color:#6FA1CC"/>
		<stop  offset="1" style="stop-color:#94BDE5"/>
	</linearGradient>
	<path fill="url(#SVGID_12_)" d="M361.608,127.643c0-2.841-2.291-5.131-5.131-5.131h-45.173c-2.84,0-5.131,2.291-5.131,5.131v45.448
		l0,0v-0.733c0,2.84,2.291,5.131,5.131,5.131h45.173c2.841,0,5.131-2.291,5.131-5.131v0.733l0,0V127.643L361.608,127.643z
		 M358.401,168.967c0,2.474-2.016,4.49-4.49,4.49h-39.95c-2.474,0-4.49-2.016-4.581-4.49v4.123l0,0v-42.058
		c0-2.474,2.016-4.49,4.49-4.49h39.95c2.474,0,4.49,2.016,4.49,4.49v42.058l0,0v-4.123L358.401,168.967L358.401,168.967z"/>
</g>
<g>
	<g>
		<g>
			
				<radialGradient id="SVGID_13_" cx="264.2794" cy="922.0414" r="1.9965" gradientTransform="matrix(3.7492 0 0 5.7602 -610.1075 -5154.4443)" gradientUnits="userSpaceOnUse">
				<stop  offset="0.5" style="stop-color:#007BC3"/>
				<stop  offset="0.599" style="stop-color:#006FB2"/>
				<stop  offset="0.8727" style="stop-color:#005387"/>
				<stop  offset="1" style="stop-color:#004776"/>
			</radialGradient>
			<path fill="url(#SVGID_13_)" d="M373.978,144.136h6.322c1.741,0,3.024,0.183,3.94,0.458s1.649,0.733,2.107,1.191
				c0.458,0.55,0.733,1.191,0.916,1.924c0.183,0.733,0.275,1.924,0.275,3.482v2.199c0,1.558-0.183,2.749-0.458,3.482
				c-0.275,0.733-0.916,1.283-1.741,1.649c-0.825,0.367-1.924,0.55-3.299,0.55h-1.649v10.079h-6.414L373.978,144.136
				L373.978,144.136z M380.209,148.442v6.414c0.183,0,0.367,0,0.458,0c0.55,0,1.008-0.092,1.191-0.458
				c0.183-0.275,0.367-0.916,0.367-1.832v-2.016c0-0.825-0.092-1.374-0.367-1.649C381.583,148.534,381.034,148.442,380.209,148.442z
				"/>
		</g>
		<g>
			
				<radialGradient id="SVGID_14_" cx="269.309" cy="922.0397" r="1.8483" gradientTransform="matrix(3.7492 0 0 5.7602 -614.6703 -5154.4443)" gradientUnits="userSpaceOnUse">
				<stop  offset="0.5" style="stop-color:#007BC3"/>
				<stop  offset="0.599" style="stop-color:#006FB2"/>
				<stop  offset="0.8727" style="stop-color:#005387"/>
				<stop  offset="1" style="stop-color:#004776"/>
			</radialGradient>
			<path fill="url(#SVGID_14_)" d="M389.555,144.136h10.446v5.04h-4.215v4.765h3.94v4.765h-3.94v5.498h4.581v5.039h-10.812
				L389.555,144.136L389.555,144.136z"/>
		</g>
		<g>
			
				<radialGradient id="SVGID_15_" cx="274.0225" cy="922.0397" r="2.0086" gradientTransform="matrix(3.7492 0 0 5.7602 -618.8609 -5154.4443)" gradientUnits="userSpaceOnUse">
				<stop  offset="0.5" style="stop-color:#007BC3"/>
				<stop  offset="0.599" style="stop-color:#006FB2"/>
				<stop  offset="0.8727" style="stop-color:#005387"/>
				<stop  offset="1" style="stop-color:#004776"/>
			</radialGradient>
			<path fill="url(#SVGID_15_)" d="M415.394,144.136v5.04h-3.757v20.067h-6.231v-20.067h-3.665v-5.04H415.394z"/>
		</g>
		<g>
			
				<radialGradient id="SVGID_16_" cx="279.4627" cy="922.0397" r="2.0265" gradientTransform="matrix(3.7492 0 0 5.7602 -623.7686 -5154.4443)" gradientUnits="userSpaceOnUse">
				<stop  offset="0.5" style="stop-color:#007BC3"/>
				<stop  offset="0.599" style="stop-color:#006FB2"/>
				<stop  offset="0.8727" style="stop-color:#005387"/>
				<stop  offset="1" style="stop-color:#004776"/>
			</radialGradient>
			<path fill="url(#SVGID_16_)" d="M416.952,144.136h4.398c2.932,0,4.948,0.092,6.047,0.367c1.008,0.275,1.924,0.825,2.566,1.832
				c0.641,1.008,1.008,2.566,1.008,4.673c0,1.924-0.275,3.299-0.733,3.94c-0.458,0.641-1.374,1.1-2.749,1.191
				c1.283,0.367,2.107,0.733,2.474,1.283c0.458,0.55,0.733,1.008,0.825,1.466c0.092,0.458,0.183,1.649,0.183,3.665v6.689h-5.864
				v-8.338c0-1.374-0.092-2.199-0.275-2.474s-0.733-0.458-1.558-0.458v11.27h-6.231v-25.106H416.952z M423.274,148.442v5.589
				c0.733,0,1.191-0.092,1.466-0.275c0.275-0.183,0.458-0.825,0.458-1.924v-1.374c0-0.825-0.183-1.283-0.367-1.558
				C424.466,148.534,424.007,148.442,423.274,148.442z"/>
		</g>
		<g>
			
				<radialGradient id="SVGID_17_" cx="285.1937" cy="922.0421" r="2.1058" gradientTransform="matrix(3.7492 0 0 5.7602 -629.0005 -5154.4443)" gradientUnits="userSpaceOnUse">
				<stop  offset="0.5" style="stop-color:#007BC3"/>
				<stop  offset="0.599" style="stop-color:#006FB2"/>
				<stop  offset="0.8727" style="stop-color:#005387"/>
				<stop  offset="1" style="stop-color:#004776"/>
			</radialGradient>
			<path fill="url(#SVGID_17_)" d="M447.464,158.888c0,2.566-0.092,4.306-0.183,5.315c-0.092,1.1-0.458,2.016-1.1,2.841
				c-0.642,0.916-1.374,1.558-2.474,2.016c-1.008,0.458-2.199,0.733-3.574,0.733c-1.283,0-2.474-0.183-3.482-0.641
				c-1.008-0.458-1.832-1.1-2.474-2.016c-0.641-0.916-1.008-1.832-1.1-2.841c-0.092-1.008-0.183-2.841-0.183-5.406v-4.306
				c0-2.566,0.092-4.306,0.183-5.315c0.092-1.008,0.458-2.016,1.1-2.841c0.642-0.825,1.374-1.558,2.474-2.016
				c1.008-0.458,2.199-0.733,3.574-0.733c1.283,0,2.474,0.183,3.482,0.641c1.008,0.458,1.832,1.1,2.474,2.016
				c0.641,0.916,1.008,1.832,1.1,2.841c0.092,1.008,0.183,2.841,0.183,5.406V158.888z M441.234,150.641
				c0-1.191-0.092-1.924-0.183-2.199c-0.092-0.367-0.367-0.458-0.733-0.458c-0.367,0-0.55,0.092-0.733,0.367
				c-0.183,0.275-0.275,1.008-0.275,2.382v11.728c0,1.466,0.092,2.382,0.183,2.657c0.092,0.367,0.367,0.55,0.825,0.55
				c0.458,0,0.733-0.183,0.825-0.55s0.183-1.374,0.183-2.841v-11.637L441.234,150.641L441.234,150.641z"/>
		</g>
		<g>
			
				<radialGradient id="SVGID_18_" cx="290.96" cy="922.0421" r="2.0971" gradientTransform="matrix(3.7492 0 0 5.7602 -634.1603 -5154.4443)" gradientUnits="userSpaceOnUse">
				<stop  offset="0.5" style="stop-color:#007BC3"/>
				<stop  offset="0.599" style="stop-color:#006FB2"/>
				<stop  offset="0.8727" style="stop-color:#005387"/>
				<stop  offset="1" style="stop-color:#004776"/>
			</radialGradient>
			<path fill="url(#SVGID_18_)" d="M463.316,151.741h-5.864v-1.832c0-0.916-0.092-1.374-0.183-1.649
				c-0.183-0.275-0.367-0.367-0.733-0.367c-0.367,0-0.641,0.183-0.825,0.458s-0.275,0.825-0.275,1.466
				c0,0.825,0.092,1.466,0.367,1.924c0.183,0.458,0.825,0.916,1.741,1.558c2.749,1.741,4.581,3.115,5.315,4.215
				c0.733,1.1,1.1,2.932,1.1,5.315c0,1.741-0.183,3.115-0.641,3.94c-0.367,0.825-1.191,1.558-2.291,2.107
				c-1.1,0.55-2.474,0.825-4.032,0.825c-1.649,0-3.115-0.367-4.306-1.008c-1.191-0.641-1.924-1.466-2.291-2.566
				c-0.367-1.008-0.55-2.474-0.55-4.398v-1.649h5.864v3.024c0,0.916,0.092,1.558,0.275,1.832s0.458,0.367,0.916,0.367
				c0.458,0,0.733-0.183,0.916-0.55c0.183-0.367,0.275-0.825,0.275-1.466c0-1.466-0.183-2.474-0.55-2.932
				c-0.367-0.458-1.374-1.191-2.932-2.291c-1.558-1.1-2.566-1.832-3.115-2.382c-0.55-0.458-0.916-1.191-1.283-2.016
				c-0.367-0.825-0.458-1.924-0.458-3.299c0-1.924,0.275-3.299,0.733-4.215c0.458-0.916,1.191-1.558,2.291-2.107
				c1.008-0.458,2.291-0.733,3.848-0.733c1.649,0,3.024,0.275,4.123,0.825c1.191,0.55,1.924,1.283,2.291,2.107
				c0.367,0.825,0.55,2.199,0.55,4.215v1.283H463.316L463.316,151.741z"/>
		</g>
		<g>
			
				<radialGradient id="SVGID_19_" cx="296.1984" cy="922.0397" r="1.8484" gradientTransform="matrix(3.7492 0 0 5.7602 -638.8781 -5154.4443)" gradientUnits="userSpaceOnUse">
				<stop  offset="0.5" style="stop-color:#007BC3"/>
				<stop  offset="0.599" style="stop-color:#006FB2"/>
				<stop  offset="0.8727" style="stop-color:#005387"/>
				<stop  offset="1" style="stop-color:#004776"/>
			</radialGradient>
			<path fill="url(#SVGID_19_)" d="M466.156,144.136h10.446v5.04h-4.215v4.765h3.94v4.765h-3.94v5.498h4.581v5.039h-10.904v-25.106
				H466.156z"/>
		</g>
		<g>
			
				<radialGradient id="SVGID_20_" cx="301.0327" cy="922.0397" r="2.0088" gradientTransform="matrix(3.7492 0 0 5.7602 -643.0686 -5154.4443)" gradientUnits="userSpaceOnUse">
				<stop  offset="0.5" style="stop-color:#007BC3"/>
				<stop  offset="0.599" style="stop-color:#006FB2"/>
				<stop  offset="0.8727" style="stop-color:#005387"/>
				<stop  offset="1" style="stop-color:#004776"/>
			</radialGradient>
			<path fill="url(#SVGID_20_)" d="M492.454,144.136v5.04h-3.757v20.067h-6.231v-20.067h-3.665v-5.04H492.454z"/>
		</g>
		<g>
			
				<radialGradient id="SVGID_21_" cx="306.7401" cy="922.0398" r="2.1258" gradientTransform="matrix(3.7492 0 0 5.7602 -648.0384 -5154.4443)" gradientUnits="userSpaceOnUse">
				<stop  offset="0.5" style="stop-color:#007BC3"/>
				<stop  offset="0.599" style="stop-color:#006FB2"/>
				<stop  offset="0.8727" style="stop-color:#005387"/>
				<stop  offset="1" style="stop-color:#004776"/>
			</radialGradient>
			<path fill="url(#SVGID_21_)" d="M509.405,155.04h-6.231v-4.398c0-1.283-0.092-2.016-0.183-2.382
				c-0.092-0.275-0.458-0.458-0.916-0.458c-0.55,0-0.825,0.183-1.008,0.55c-0.092,0.367-0.183,1.191-0.183,2.474v11.637
				c0,1.191,0.092,2.016,0.183,2.382c0.183,0.367,0.458,0.55,0.916,0.55c0.458,0,0.733-0.183,0.916-0.55
				c0.183-0.367,0.183-1.283,0.183-2.657v-3.024h6.231v1.008c0,2.566-0.183,4.398-0.55,5.498c-0.367,1.1-1.1,2.016-2.291,2.841
				c-1.191,0.825-2.657,1.191-4.49,1.191c-1.833,0-3.39-0.367-4.581-1.008c-1.191-0.733-2.016-1.649-2.382-2.841
				c-0.367-1.191-0.55-3.024-0.55-5.498v-7.331c0-1.832,0.092-3.115,0.183-4.032c0.092-0.916,0.458-1.741,1.1-2.566
				c0.55-0.825,1.374-1.466,2.474-2.016c1.008-0.458,2.291-0.733,3.574-0.733c1.832,0,3.39,0.367,4.581,1.1
				c1.191,0.733,2.016,1.649,2.382,2.749c0.367,1.1,0.55,2.841,0.55,5.131v2.382L509.405,155.04L509.405,155.04z"/>
		</g>
		<g>
			
				<radialGradient id="SVGID_22_" cx="312.6422" cy="922.0421" r="2.1106" gradientTransform="matrix(3.7492 0 0 5.7602 -653.3323 -5154.4443)" gradientUnits="userSpaceOnUse">
				<stop  offset="0.5" style="stop-color:#007BC3"/>
				<stop  offset="0.599" style="stop-color:#006FB2"/>
				<stop  offset="0.8727" style="stop-color:#005387"/>
				<stop  offset="1" style="stop-color:#004776"/>
			</radialGradient>
			<path fill="url(#SVGID_22_)" d="M526.082,158.888c0,2.566-0.092,4.306-0.183,5.315c-0.092,1.1-0.458,2.016-1.1,2.841
				c-0.641,0.916-1.374,1.558-2.474,2.016c-1.008,0.458-2.199,0.733-3.573,0.733c-1.283,0-2.474-0.183-3.482-0.641
				c-1.008-0.458-1.832-1.1-2.474-2.016c-0.641-0.916-1.008-1.832-1.1-2.841c-0.092-1.008-0.183-2.841-0.183-5.406v-4.306
				c0-2.566,0.092-4.306,0.183-5.315c0.092-1.008,0.458-2.016,1.1-2.841s1.374-1.558,2.474-2.016
				c1.008-0.458,2.199-0.733,3.574-0.733c1.283,0,2.474,0.183,3.482,0.641c1.008,0.458,1.833,1.1,2.474,2.016
				c0.641,0.916,1.008,1.832,1.1,2.841c0.092,1.008,0.183,2.841,0.183,5.406V158.888z M519.851,150.641
				c0-1.191-0.092-1.924-0.183-2.199c-0.092-0.367-0.367-0.458-0.733-0.458s-0.55,0.092-0.733,0.367
				c-0.183,0.275-0.275,1.008-0.275,2.382v11.728c0,1.466,0.092,2.382,0.183,2.657c0.092,0.367,0.367,0.55,0.825,0.55
				s0.733-0.183,0.825-0.55c0.092-0.367,0.183-1.374,0.183-2.841v-11.637L519.851,150.641L519.851,150.641z"/>
		</g>
	</g>
	<g opacity="0.75">
		<g>
			<path fill="#FFFFFF" d="M386.256,145.785c-0.458-0.55-1.191-0.916-2.107-1.191c-0.916-0.275-2.199-0.458-3.94-0.458h-6.231v0.641
				h5.223c1.741,0,3.024,0.183,3.94,0.458c0.916,0.275,1.558,0.641,2.107,1.191c0.458,0.55,0.733,1.191,0.916,1.924
				c0.183,0.733,0.275,1.924,0.275,3.482v2.199c0,1.649-0.183,2.749-0.458,3.482c-0.183,0.367-0.458,0.733-0.825,1.1h0.092
				c0.825-0.367,1.466-0.916,1.741-1.649c0.275-0.733,0.458-1.924,0.458-3.482v-2.199c0-1.558-0.092-2.749-0.275-3.482
				C387.081,146.976,386.714,146.335,386.256,145.785z"/>
		</g>
		<g>
			<path fill="#FFFFFF" d="M380.209,154.856v-5.589c-0.275-0.092-0.641-0.092-1.1-0.092v6.414c0.183,0,0.367,0,0.458,0
				c0.55,0,1.008-0.183,1.191-0.458c0.092-0.092,0.092-0.183,0.092-0.275c-0.092,0-0.183,0-0.183,0
				C380.575,154.856,380.392,154.856,380.209,154.856z"/>
		</g>
		<g>
			<rect x="379.109" y="159.804" fill="#FFFFFF" width="1.1" height="9.438"/>
		</g>
		<g>
			<polygon fill="#FFFFFF" points="394.778,154.581 398.718,154.581 398.718,158.705 399.817,158.705 399.817,153.94 
				395.877,153.94 395.877,149.817 394.778,149.817 			"/>
		</g>
		<g>
			<polygon fill="#FFFFFF" points="398.901,149.175 400.001,149.175 400.001,144.136 389.555,144.136 389.555,144.869 
				398.901,144.869 			"/>
		</g>
		<g>
			<polygon fill="#FFFFFF" points="395.877,159.346 394.778,159.346 394.778,164.936 399.359,164.936 399.359,169.242 
				400.459,169.242 400.459,164.202 395.877,164.202 			"/>
		</g>
		<g>
			<rect x="410.538" y="149.817" fill="#FFFFFF" width="1.1" height="19.425"/>
		</g>
		<g>
			<polygon fill="#FFFFFF" points="401.65,144.869 414.295,144.869 414.295,149.175 415.394,149.175 415.394,144.136 
				401.65,144.136 			"/>
		</g>
		<g>
			<path fill="#FFFFFF" d="M423.274,149.267c-0.275-0.092-0.641-0.183-1.1-0.183v5.589c0.733,0,1.191-0.092,1.466-0.275
				c0.092-0.092,0.183-0.183,0.275-0.367c-0.183,0-0.367,0-0.642,0V149.267L423.274,149.267z"/>
		</g>
		<g>
			<path fill="#FFFFFF" d="M426.298,145.144c1.008,0.275,1.924,0.825,2.566,1.832c0.641,1.008,1.008,2.566,1.008,4.673
				c0,1.924-0.275,3.299-0.733,3.94c-0.092,0.092-0.092,0.183-0.183,0.183c0.55-0.183,1.008-0.55,1.283-0.916
				c0.458-0.641,0.733-2.016,0.733-3.94c0-2.107-0.367-3.665-1.008-4.673c-0.642-1.008-1.558-1.558-2.566-1.832
				c-1.008-0.275-3.024-0.367-6.047-0.367h-4.398v0.641h3.299C423.274,144.869,425.29,144.96,426.298,145.144z"/>
		</g>
		<g>
			<path fill="#FFFFFF" d="M422.175,169.242h1.1v-10.537c-0.275-0.092-0.641-0.092-1.1-0.092V169.242z"/>
		</g>
		<g>
			<path fill="#FFFFFF" d="M428.955,158.063c0.458,0.55,0.642,1.008,0.825,1.466c0.092,0.458,0.183,1.649,0.183,3.665v6.047h1.1
				v-6.597c0-2.016-0.092-3.299-0.183-3.757c-0.092-0.458-0.367-0.916-0.825-1.466c-0.367-0.458-0.916-0.733-1.741-1.1
				c-0.458,0.183-1.1,0.367-1.832,0.458C427.672,157.147,428.497,157.605,428.955,158.063z"/>
		</g>
		<g>
			<path fill="#FFFFFF" d="M439.401,165.027c-0.092-0.367-0.183-1.191-0.183-2.657v-11.728c0-1.008,0.092-1.649,0.183-2.016
				c-0.092,0-0.183,0-0.275,0c-0.367,0-0.55,0.092-0.733,0.367s-0.275,1.008-0.275,2.291v11.728c0,1.466,0.092,2.382,0.183,2.657
				c0.092,0.367,0.367,0.55,0.825,0.55c0.458,0,0.733-0.183,0.825-0.55v-0.092C439.676,165.394,439.493,165.302,439.401,165.027z"/>
		</g>
		<g>
			<path fill="#FFFFFF" d="M446.181,146.243c-0.641-0.916-1.466-1.558-2.474-2.016c-1.008-0.458-2.199-0.641-3.482-0.641
				c-1.374,0-2.566,0.275-3.574,0.733c-0.458,0.183-0.825,0.458-1.191,0.733c0.092,0,0.092-0.092,0.092-0.092
				c1.008-0.458,2.199-0.733,3.574-0.733c1.283,0,2.474,0.183,3.482,0.641c1.008,0.458,1.832,1.1,2.474,2.016
				c0.641,0.916,1.008,1.832,1.1,2.841c0.092,1.008,0.183,2.841,0.183,5.406v4.306c0,2.566-0.092,4.306-0.183,5.315
				c-0.092,1.008-0.458,2.016-1.1,2.841c-0.367,0.458-0.733,0.916-1.191,1.283c0.916-0.458,1.741-1.1,2.291-1.924
				c0.641-0.825,0.916-1.832,1.1-2.841c0.092-1.008,0.183-2.841,0.183-5.315v-4.215c0-2.566-0.092-4.398-0.183-5.406
				C447.189,148.076,446.823,147.159,446.181,146.243z"/>
		</g>
		<g>
			<path fill="#FFFFFF" d="M457.543,153.207c-1.008-0.55-1.558-1.1-1.741-1.558c-0.183-0.458-0.367-1.1-0.367-1.924
				c0-0.55,0.092-0.916,0.183-1.283c0,0-0.092,0-0.183,0c-0.367,0-0.642,0.183-0.825,0.458s-0.275,0.825-0.275,1.466
				c0,0.825,0.092,1.466,0.367,1.924c0.183,0.458,0.825,0.916,1.741,1.558c2.749,1.741,4.581,3.115,5.315,4.215
				c0.733,1.1,1.1,2.841,1.1,5.315c0,1.741-0.183,3.115-0.642,3.94c-0.275,0.55-0.641,1.008-1.191,1.466
				c1.1-0.55,1.924-1.283,2.291-2.107s0.641-2.199,0.641-3.94c0-2.474-0.367-4.215-1.1-5.315
				C462.033,156.414,460.292,154.948,457.543,153.207z"/>
		</g>
		<g>
			<path fill="#FFFFFF" d="M459.376,145.144c1.1,0.55,1.924,1.283,2.291,2.107c0.367,0.825,0.55,2.199,0.55,4.215v0.275h1.1v-1.008
				c0-2.016-0.183-3.39-0.55-4.215s-1.1-1.558-2.291-2.107c-1.191-0.55-2.566-0.825-4.123-0.825c-1.466,0-2.749,0.275-3.848,0.733
				c-0.367,0.183-0.733,0.458-1.1,0.641c1.008-0.458,2.291-0.733,3.757-0.733C456.902,144.319,458.276,144.594,459.376,145.144z"/>
		</g>
		<g>
			<path fill="#FFFFFF" d="M454.428,164.019c0,0.916,0.092,1.558,0.275,1.832s0.458,0.367,0.825,0.367
				c0.458,0,0.733-0.183,0.916-0.55c0,0,0.092-0.092,0.092-0.183c-0.367,0-0.641-0.183-0.825-0.367
				c-0.183-0.275-0.275-0.916-0.275-1.832v-3.024h-5.864v0.641h4.765v3.115L454.428,164.019L454.428,164.019z"/>
		</g>
		<g>
			<polygon fill="#FFFFFF" points="471.379,154.581 475.319,154.581 475.319,158.705 476.419,158.705 476.419,153.94 
				472.479,153.94 472.479,149.817 471.379,149.817 			"/>
		</g>
		<g>
			<polygon fill="#FFFFFF" points="472.479,159.346 471.379,159.346 471.379,164.936 475.961,164.936 475.961,169.242 
				477.06,169.242 477.06,164.202 472.479,164.202 			"/>
		</g>
		<g>
			<polygon fill="#FFFFFF" points="475.503,149.175 476.694,149.175 476.694,144.136 466.156,144.136 466.156,144.869 
				475.503,144.869 			"/>
		</g>
		<g>
			<rect x="487.598" y="149.817" fill="#FFFFFF" width="1.1" height="19.425"/>
		</g>
		<g>
			<polygon fill="#FFFFFF" points="478.709,144.869 491.354,144.869 491.354,149.175 492.454,149.175 492.454,144.136 
				478.709,144.136 			"/>
		</g>
		<g>
			<path fill="#FFFFFF" d="M506.473,144.777c-1.191-0.733-2.749-1.1-4.581-1.1c-1.374,0-2.566,0.275-3.574,0.733
				c-0.458,0.183-0.916,0.458-1.283,0.733c0.092,0,0.092-0.092,0.183-0.092c1.008-0.458,2.291-0.733,3.574-0.733
				c1.832,0,3.39,0.367,4.581,1.1c1.191,0.733,2.016,1.649,2.382,2.749c0.367,1.1,0.55,2.841,0.55,5.131v1.741h1.1v-2.382
				c0-2.382-0.183-4.032-0.55-5.131C508.489,146.426,507.664,145.51,506.473,144.777z"/>
		</g>
		<g>
			<path fill="#FFFFFF" d="M508.306,160.812c0,2.566-0.183,4.398-0.55,5.498c-0.367,1.008-1.008,1.832-2.016,2.657
				c0.275-0.183,0.55-0.275,0.825-0.458c1.191-0.825,2.016-1.741,2.291-2.841c0.367-1.1,0.55-2.932,0.55-5.498v-1.008h-6.231v0.641
				h5.131V160.812z"/>
		</g>
		<g>
			<path fill="#FFFFFF" d="M499.967,149.084c-0.183,0.367-0.183,1.191-0.183,2.474v11.637c0,1.191,0.092,2.016,0.183,2.382
				c0.183,0.367,0.458,0.55,0.916,0.55c0.458,0,0.733-0.183,0.916-0.55v-0.092c-0.367,0-0.641-0.183-0.825-0.55
				c-0.092-0.367-0.183-1.191-0.183-2.382v-11.637c0-1.191,0.092-1.924,0.183-2.382h-0.092
				C500.425,148.534,500.059,148.717,499.967,149.084z"/>
		</g>
		<g>
			<path fill="#FFFFFF" d="M525.898,149.175c-0.092-1.008-0.458-2.016-1.1-2.841c-0.641-0.916-1.466-1.558-2.474-2.016
				c-1.008-0.458-2.199-0.641-3.482-0.641c-1.374,0-2.566,0.275-3.574,0.733c-0.458,0.183-0.825,0.458-1.191,0.733
				c0,0,0.092-0.092,0.183-0.092c1.008-0.458,2.199-0.733,3.574-0.733c1.283,0,2.474,0.183,3.482,0.641
				c1.008,0.458,1.832,1.1,2.474,2.016c0.641,0.916,1.008,1.832,1.1,2.841c0.092,1.008,0.183,2.841,0.183,5.406v4.306
				c0,2.566-0.092,4.306-0.183,5.315c-0.092,1.008-0.458,2.016-1.1,2.841c-0.367,0.458-0.733,0.916-1.191,1.283
				c0.916-0.458,1.741-1.1,2.291-1.924c0.641-0.825,0.916-1.832,1.1-2.841c0.092-1.008,0.183-2.841,0.183-5.315v-4.306
				C526.082,152.016,525.99,150.183,525.898,149.175z"/>
		</g>
		<g>
			<path fill="#FFFFFF" d="M518.018,165.027c-0.092-0.367-0.183-1.191-0.183-2.657v-11.728c0-1.008,0-1.649,0.183-2.016
				c-0.092,0-0.183,0-0.275,0c-0.367,0-0.55,0.092-0.733,0.367s-0.275,1.008-0.275,2.291v11.728c0,1.466,0.092,2.382,0.183,2.657
				c0.092,0.367,0.367,0.55,0.825,0.55s0.733-0.183,0.825-0.55v-0.092C518.293,165.394,518.11,165.302,518.018,165.027z"/>
		</g>
	</g>
	<g>
		<path fill="#004776" d="M383.049,147.068c-0.275-0.275-0.825-0.367-1.649-0.367v1.924c0.183,0.092,0.367,0.183,0.458,0.275
			c0.275,0.275,0.367,0.825,0.367,1.649v2.107c0,0.183,0,0.275,0,0.458c0.367-0.092,0.641-0.183,0.825-0.458
			c0.183-0.275,0.367-0.916,0.367-1.832v-2.016C383.416,147.893,383.233,147.343,383.049,147.068z"/>
		<path fill="#004776" d="M383.049,157.33H381.4v1.832h0.55c1.374,0,2.474-0.183,3.299-0.55c0.825-0.367,1.466-0.916,1.741-1.649
			c0.092-0.183,0.183-0.367,0.183-0.55c-0.183,0.183-0.458,0.367-0.733,0.458C385.615,157.147,384.424,157.33,383.049,157.33z"/>
		<polygon fill="#004776" points="375.169,144.136 373.978,144.136 373.978,169.242 380.209,169.242 380.209,167.41 375.169,167.41 
					"/>
		<rect x="397.068" y="147.343" fill="#004776" width="3.024" height="1.832"/>
		<polygon fill="#004776" points="390.746,144.136 389.555,144.136 389.555,169.242 400.459,169.242 400.459,167.41 390.746,167.41 
					"/>
		<rect x="397.068" y="156.872" fill="#004776" width="2.749" height="1.832"/>
		<rect x="412.829" y="147.343" fill="#004776" width="2.566" height="1.832"/>
		<polygon fill="#004776" points="406.506,147.343 402.841,147.343 402.841,144.136 401.65,144.136 401.65,149.175 405.407,149.175 
			405.407,169.242 411.637,169.242 411.637,167.41 406.506,167.41 		"/>
		<path fill="#004776" d="M425.931,147.068c-0.275-0.275-0.733-0.367-1.466-0.367v2.016c0.092,0.092,0.275,0.092,0.367,0.183
			c0.275,0.275,0.367,0.733,0.367,1.558v1.374c0,0.183,0,0.275,0,0.458c0.367-0.092,0.55-0.092,0.733-0.275
			c0.275-0.183,0.458-0.825,0.458-1.924v-1.374C426.298,147.801,426.206,147.251,425.931,147.068z"/>
		<path fill="#004776" d="M426.298,159.071c0-1.374-0.092-2.199-0.275-2.474s-0.733-0.458-1.649-0.458v1.924
			c0.183,0.092,0.367,0.183,0.458,0.275c0.183,0.367,0.275,1.191,0.275,2.474v8.43h5.864v-1.832h-4.673L426.298,159.071
			L426.298,159.071z"/>
		<polygon fill="#004776" points="418.143,144.136 416.952,144.136 416.952,169.242 423.274,169.242 423.274,167.41 418.143,167.41 
					"/>
		<path fill="#004776" d="M441.417,146.06c-0.367,0-0.55,0.092-0.733,0.367c-0.092,0.183-0.183,0.641-0.275,1.374
			c0.275,0,0.458,0.183,0.55,0.458c0.092,0.275,0.183,1.1,0.183,2.199v11.545c0,0.641,0,1.191,0,1.558c0.092,0,0.092,0,0.183,0
			c0.458,0,0.733-0.183,0.825-0.55c0.092-0.367,0.183-1.283,0.183-2.841v-11.362c0-1.191-0.092-1.924-0.183-2.199
			C442.058,146.243,441.875,146.06,441.417,146.06z"/>
		<path fill="#004776" d="M441.417,167.959c-1.283,0-2.474-0.183-3.482-0.641c-1.008-0.458-1.832-1.1-2.474-2.016
			c-0.642-0.916-1.008-1.832-1.1-2.841c-0.092-1.008-0.183-2.841-0.183-5.406v-4.306c0-2.566,0.092-4.306,0.183-5.315
			c0.092-0.641,0.183-1.191,0.458-1.741c-0.183,0.183-0.367,0.458-0.55,0.641c-0.642,0.825-0.916,1.832-1.1,2.841
			c-0.092,1.008-0.183,2.841-0.183,5.315v4.306c0,2.566,0.092,4.398,0.183,5.406c0.092,1.008,0.458,2.016,1.1,2.841
			c0.641,0.916,1.466,1.558,2.474,2.016c1.008,0.458,2.199,0.641,3.482,0.641c1.374,0,2.566-0.275,3.574-0.733
			s1.832-1.1,2.474-2.016c0.275-0.367,0.458-0.733,0.641-1.1c-0.55,0.55-1.1,1.008-1.924,1.283
			C443.982,167.776,442.791,167.959,441.417,167.959z"/>
		<path fill="#004776" d="M458.093,167.959c-1.649,0-3.115-0.367-4.306-1.008c-1.191-0.641-1.924-1.466-2.291-2.566
			c-0.367-1.008-0.55-2.382-0.55-4.215h-1.191v1.741c0,1.924,0.183,3.299,0.55,4.398c0.367,1.008,1.191,1.832,2.291,2.566
			c1.191,0.641,2.657,1.008,4.306,1.008c1.558,0,2.841-0.275,4.032-0.825c1.191-0.55,1.924-1.283,2.291-2.107
			c0.092-0.183,0.183-0.367,0.183-0.55c-0.367,0.367-0.825,0.641-1.374,0.916C460.934,167.684,459.651,167.959,458.093,167.959z"/>
		<path fill="#004776" d="M458.735,148.076c0-0.825-0.092-1.374-0.183-1.649c-0.183-0.275-0.367-0.367-0.733-0.367
			c-0.367,0-0.641,0.183-0.825,0.458c-0.183,0.275-0.275,0.733-0.275,1.283c0.367,0,0.55,0.092,0.733,0.367
			c0.183,0.183,0.183,0.825,0.183,1.649v1.832h5.864v-1.008c0-0.275,0-0.55,0-0.825h-4.673v-1.741L458.735,148.076L458.735,148.076z
			"/>
		<path fill="#004776" d="M456.719,159.988c0.275,0.183,0.458,0.367,0.642,0.55c0.367,0.458,0.55,1.466,0.55,2.932
			c0,0.092,0,0.183,0,0.275c0.367,0,0.641-0.183,0.825-0.55c0.183-0.367,0.275-0.825,0.275-1.558c0-1.466-0.183-2.474-0.55-2.932
			c-0.367-0.458-1.374-1.191-2.932-2.291c-1.558-1.1-2.566-1.832-3.115-2.382c-0.458-0.458-0.916-1.191-1.283-2.016
			c-0.367-0.825-0.458-1.924-0.458-3.299c0-1.558,0.183-2.749,0.458-3.574c-0.367,0.367-0.641,0.733-0.916,1.191
			c-0.458,0.916-0.733,2.291-0.733,4.215c0,1.374,0.183,2.474,0.458,3.299c0.367,0.825,0.733,1.558,1.283,2.016
			c0.55,0.458,1.558,1.283,3.115,2.382c0.092,0.092,0.183,0.092,0.183,0.183l1.191,0.825L456.719,159.988z"/>
		<polygon fill="#004776" points="467.348,144.136 466.156,144.136 466.156,169.242 477.06,169.242 477.06,167.41 467.348,167.41 		
			"/>
		<rect x="473.67" y="147.343" fill="#004776" width="3.024" height="1.832"/>
		<rect x="473.67" y="156.872" fill="#004776" width="2.749" height="1.832"/>
		<rect x="489.888" y="147.343" fill="#004776" width="2.566" height="1.832"/>
		<polygon fill="#004776" points="483.566,147.343 479.901,147.343 479.901,144.136 478.709,144.136 478.709,149.175 
			482.466,149.175 482.466,169.242 488.697,169.242 488.697,167.41 483.566,167.41 		"/>
		<path fill="#004776" d="M504.091,163.195c0.183-0.367,0.183-1.283,0.183-2.657v-1.374h-1.1v3.115c0,0.55,0,1.008,0,1.374
			c0,0,0,0,0.092,0C503.633,163.744,503.908,163.561,504.091,163.195z"/>
		<path fill="#004776" d="M504.274,148.9c0-1.283-0.092-2.016-0.183-2.382c-0.092-0.367-0.458-0.458-0.916-0.458
			c-0.55,0-0.825,0.183-1.008,0.55c-0.092,0.275-0.183,0.641-0.183,1.191c0.458,0,0.733,0.183,0.916,0.458
			c0.183,0.275,0.183,1.1,0.183,2.382v4.398h6.231v-1.832h-5.131V148.9H504.274z"/>
		<path fill="#004776" d="M503.266,167.959c-1.832,0-3.39-0.367-4.581-1.008c-1.191-0.733-2.016-1.649-2.382-2.841
			c-0.367-1.191-0.55-3.024-0.55-5.498v-7.33c0-1.832,0.092-3.115,0.183-4.032c0.092-0.458,0.183-0.916,0.367-1.466
			c-0.183,0.183-0.367,0.367-0.458,0.641c-0.55,0.825-0.916,1.741-1.1,2.566c-0.092,0.916-0.183,2.291-0.183,4.032v7.33
			c0,2.474,0.183,4.306,0.55,5.498c0.367,1.191,1.191,2.199,2.382,2.841c1.191,0.733,2.749,1.008,4.581,1.008
			c1.741,0,3.299-0.367,4.49-1.191c1.191-0.825,1.924-1.649,2.291-2.749c-0.367,0.367-0.733,0.641-1.1,0.916
			C506.473,167.593,505.007,167.959,503.266,167.959z"/>
		<path fill="#004776" d="M520.034,146.06c-0.367,0-0.55,0.092-0.733,0.367c-0.092,0.183-0.183,0.641-0.275,1.374
			c0.275,0,0.458,0.183,0.642,0.458c0.092,0.275,0.183,1.1,0.183,2.199v11.545c0,0.641,0,1.191,0,1.558c0.092,0,0.092,0,0.183,0
			c0.458,0,0.733-0.183,0.825-0.55c0.092-0.367,0.183-1.283,0.183-2.841v-11.362c0-1.191-0.092-1.924-0.183-2.199
			C520.676,146.243,520.401,146.06,520.034,146.06z"/>
		<path fill="#004776" d="M520.034,167.959c-1.283,0-2.474-0.183-3.482-0.641c-1.008-0.458-1.832-1.1-2.474-2.016
			c-0.641-0.916-1.008-1.832-1.099-2.841c-0.092-1.008-0.183-2.841-0.183-5.406v-4.306c0-2.566,0.092-4.306,0.183-5.315
			c0.092-0.641,0.183-1.191,0.458-1.741c-0.183,0.183-0.367,0.458-0.55,0.641c-0.641,0.825-0.916,1.832-1.1,2.841
			c-0.092,1.008-0.183,2.841-0.183,5.315v4.306c0,2.566,0.092,4.398,0.183,5.406c0.092,1.008,0.458,2.016,1.1,2.841
			c0.641,0.916,1.466,1.558,2.474,2.016c1.008,0.458,2.199,0.641,3.482,0.641c1.374,0,2.566-0.275,3.573-0.733
			c1.008-0.458,1.833-1.1,2.474-2.016c0.275-0.367,0.458-0.733,0.641-1.1c-0.55,0.55-1.1,1.008-1.924,1.283
			C522.508,167.776,521.317,167.959,520.034,167.959z"/>
	</g>
</g>
<g>
	<path d="M375.18,133.316h-1.283v-0.641h3.299v0.641h-1.283v3.665h-0.825v-3.665H375.18z"/>
	<path d="M381.41,134.782c0,1.466-0.916,2.291-2.107,2.291c-1.191,0-2.016-0.916-2.016-2.199c0-1.374,0.825-2.291,2.107-2.291
		S381.41,133.591,381.41,134.782z M378.112,134.874c0,0.916,0.458,1.558,1.191,1.558s1.191-0.733,1.191-1.649
		c0-0.825-0.367-1.558-1.191-1.558C378.57,133.224,378.112,133.957,378.112,134.874z M379.669,131.667l0.641,0.733h-0.55
		l-0.367-0.367l0,0l-0.367,0.458h-0.55l0.55-0.733h0.641V131.667z M380.127,132.033c0.183-0.275,0.367-0.275,0.367-0.55
		c0-0.092-0.092-0.183-0.183-0.183s-0.275,0.092-0.275,0.275l-0.275-0.183c0.092-0.275,0.367-0.458,0.641-0.458
		c0.275,0,0.55,0.183,0.55,0.458c0,0.367-0.275,0.367-0.458,0.733L380.127,132.033z"/>
	<path d="M382.052,137.073v-4.398h0.916l1.1,1.833c0.275,0.458,0.55,1.008,0.733,1.466l0,0c-0.092-0.55-0.092-1.191-0.092-1.833
		v-1.466h0.733v4.398h-0.825l-1.1-1.924c-0.275-0.458-0.55-1.008-0.825-1.466l0,0c0,0.55,0,1.1,0,1.833v1.558H382.052z"/>
	<path d="M389.932,136.798c-0.275,0.092-0.825,0.275-1.374,0.275c-0.733,0-1.283-0.183-1.741-0.55
		c-0.367-0.367-0.641-0.916-0.641-1.649c0-1.374,1.008-2.291,2.474-2.291c0.55,0,0.916,0.092,1.191,0.183l-0.183,0.641
		c-0.275-0.092-0.55-0.183-1.008-0.183c-0.916,0-1.558,0.55-1.558,1.558c0,1.008,0.641,1.558,1.558,1.558
		c0.275,0,0.458,0,0.641-0.092v-1.1h-0.733v-0.641h1.558v2.291H389.932z"/>
	<path d="M395.246,136.889c-0.183,0.092-0.641,0.183-1.1,0.183c-1.374,0-2.199-0.825-2.199-2.199c0-1.466,1.008-2.291,2.291-2.291
		c0.55,0,0.916,0.092,1.1,0.183l-0.183,0.641c-0.183-0.092-0.458-0.183-0.825-0.183c-0.916,0-1.558,0.55-1.558,1.649
		c0,0.916,0.55,1.558,1.558,1.558c0.367,0,0.641-0.092,0.825-0.183L395.246,136.889z"/>
	<path d="M399.644,134.782c0,1.466-0.916,2.291-2.107,2.291c-1.191,0-2.016-0.916-2.016-2.199c0-1.374,0.825-2.291,2.107-2.291
		S399.644,133.591,399.644,134.782z M396.437,134.874c0,0.916,0.458,1.558,1.191,1.558s1.191-0.733,1.191-1.649
		c0-0.825-0.367-1.558-1.191-1.558C396.804,133.224,396.437,133.957,396.437,134.874z M397.903,131.667l0.641,0.733h-0.641
		l-0.367-0.458l0,0l-0.367,0.458h-0.55l0.641-0.733H397.903z"/>
	<path d="M400.377,137.073v-4.398h0.916l1.1,1.833c0.275,0.458,0.55,1.008,0.733,1.466l0,0c-0.092-0.55-0.092-1.191-0.092-1.833
		v-1.466h0.733v4.398h-0.825l-1.1-1.924c-0.275-0.458-0.55-1.008-0.825-1.466l0,0c0,0.55,0,1.1,0,1.833v1.558H400.377z"/>
	<path d="M408.257,136.798c-0.275,0.092-0.825,0.275-1.374,0.275c-0.733,0-1.283-0.183-1.741-0.55
		c-0.367-0.367-0.641-0.916-0.641-1.649c0-1.374,1.008-2.291,2.474-2.291c0.55,0,0.916,0.092,1.191,0.183l-0.183,0.641
		c-0.275-0.092-0.55-0.183-1.008-0.183c-0.916,0-1.558,0.55-1.558,1.558c0,1.008,0.641,1.558,1.558,1.558
		c0.275,0,0.458,0,0.641-0.092v-1.1h-0.733v-0.641h1.558v2.291H408.257z"/>
	<path d="M411.006,133.316h-1.283v-0.641h3.299v0.641h-1.283v3.665h-0.825v-3.665H411.006z"/>
	<path d="M414.671,137.073v-1.833l-1.374-2.566h0.916l0.55,1.1c0.183,0.367,0.275,0.55,0.367,0.825l0,0
		c0.092-0.275,0.275-0.55,0.367-0.825l0.55-1.1h0.916l-1.466,2.566v1.833H414.671z"/>
	<path d="M421.818,136.889c-0.183,0.092-0.641,0.183-1.1,0.183c-1.374,0-2.199-0.825-2.199-2.199c0-1.466,1.008-2.291,2.291-2.291
		c0.55,0,0.916,0.092,1.1,0.183l-0.183,0.641c-0.183-0.092-0.458-0.183-0.825-0.183c-0.916,0-1.558,0.55-1.558,1.649
		c0,0.916,0.55,1.558,1.558,1.558c0.367,0,0.641-0.092,0.825-0.183L421.818,136.889z"/>
	<path d="M426.217,134.782c0,1.466-0.916,2.291-2.107,2.291c-1.191,0-2.016-0.916-2.016-2.199c0-1.374,0.825-2.291,2.107-2.291
		C425.484,132.583,426.217,133.591,426.217,134.782z M423.01,134.874c0,0.916,0.458,1.558,1.191,1.558s1.191-0.733,1.191-1.649
		c0-0.825-0.367-1.558-1.191-1.558S423.01,133.957,423.01,134.874z M424.476,131.667l0.641,0.733h-0.55l-0.275-0.458l0,0
		l-0.367,0.458h-0.55l0.55-0.733H424.476z M425.025,132.033c0.092-0.275,0.367-0.367,0.367-0.55c0-0.092-0.092-0.183-0.183-0.183
		c-0.092,0-0.275,0.092-0.275,0.275l-0.275-0.183c0.092-0.275,0.367-0.458,0.641-0.458c0.275,0,0.55,0.183,0.55,0.458
		c0,0.367-0.275,0.367-0.458,0.733L425.025,132.033z"/>
	<path d="M428.232,132.766c0.275-0.092,0.641-0.092,1.191-0.092s1.008,0.092,1.283,0.367c0.275,0.183,0.458,0.55,0.458,1.008
		s-0.092,0.733-0.367,1.008c-0.275,0.275-0.825,0.458-1.374,0.458c-0.183,0-0.275,0-0.367,0v1.649h-0.825L428.232,132.766
		L428.232,132.766z M429.057,134.782c0.092,0,0.183,0,0.366,0c0.641,0,0.916-0.275,0.916-0.825c0-0.458-0.367-0.733-0.916-0.733
		c-0.183,0-0.366,0-0.458,0v1.558H429.057z"/>
	<path d="M432.722,132.674v1.741h1.833v-1.741h0.825v4.398h-0.825v-1.924h-1.833v1.924h-0.825v-4.398H432.722z"/>
	<path d="M437.12,135.79l-0.367,1.283h-0.825l1.374-4.398h1.008l1.374,4.398h-0.825l-0.367-1.283H437.12z M438.128,131.667
		l0.641,0.733h-0.55l-0.275-0.458l0,0l-0.275,0.458h-0.55l0.55-0.733H438.128z M438.403,135.24l-0.367-1.1
		c-0.092-0.275-0.183-0.55-0.183-0.825l0,0c-0.092,0.275-0.092,0.55-0.183,0.825l-0.367,1.1H438.403z M438.77,131.3l0.458,0.733
		h-0.458l-0.733-0.733H438.77z"/>
	<path d="M440.327,137.073v-4.398h0.916l1.1,1.833c0.275,0.458,0.55,1.008,0.733,1.466l0,0c-0.092-0.55-0.092-1.191-0.092-1.833
		v-1.466h0.733v4.398h-0.825l-1.1-1.924c-0.275-0.458-0.55-1.008-0.825-1.466l0,0c0,0.55,0,1.1,0,1.833v1.558H440.327z"/>
	<path d="M446.1,132.766c0.367-0.092,0.825-0.092,1.283-0.092c0.825,0,1.374,0.183,1.741,0.55c0.458,0.367,0.641,0.825,0.641,1.649
		c0,0.733-0.275,1.374-0.641,1.741c-0.458,0.367-1.1,0.641-2.016,0.641c-0.458,0-0.825,0-1.1-0.092v-4.398H446.1z M446.925,136.431
		c0.092,0,0.275,0,0.458,0c1.008,0,1.649-0.55,1.649-1.649c0-1.008-0.55-1.558-1.558-1.558c-0.275,0-0.458,0-0.55,0V136.431z"/>
	<path d="M451.323,132.674v4.398h-0.825v-4.398H451.323z M450.498,137.989c0-0.183,0.183-0.367,0.366-0.367
		c0.183,0,0.367,0.183,0.367,0.367s-0.183,0.367-0.367,0.367C450.681,138.355,450.498,138.172,450.498,137.989z"/>
	<path d="M455.354,136.889c-0.183,0.092-0.641,0.183-1.1,0.183c-1.374,0-2.199-0.825-2.199-2.199c0-1.466,1.008-2.291,2.291-2.291
		c0.55,0,0.916,0.092,1.1,0.183l-0.183,0.641c-0.183-0.092-0.458-0.183-0.825-0.183c-0.916,0-1.558,0.55-1.558,1.649
		c0,0.916,0.55,1.558,1.558,1.558c0.366,0,0.641-0.092,0.825-0.183L455.354,136.889z"/>
	<path d="M456.82,132.674v1.741h1.833v-1.741h0.825v4.398h-0.825v-1.924h-1.833v1.924h-0.825v-4.398H456.82z"/>
	<path d="M462.501,137.073l-1.374-4.398h0.825l0.641,2.016c0.183,0.55,0.275,1.1,0.458,1.558l0,0
		c0.092-0.55,0.275-1.008,0.458-1.558l0.641-2.016h0.825l-1.466,4.398H462.501z"/>
	<path d="M466.167,132.674v2.566c0,0.825,0.367,1.283,0.916,1.283s0.916-0.367,0.916-1.283v-2.566h0.825v2.474
		c0,1.374-0.733,1.924-1.741,1.924c-1.008,0-1.649-0.55-1.649-1.924v-2.474H466.167z M466.716,137.989
		c0-0.183,0.183-0.367,0.367-0.367s0.366,0.183,0.366,0.367s-0.183,0.367-0.366,0.367S466.716,138.172,466.716,137.989z"/>
	<path d="M471.664,133.316h-1.283v-0.641h3.299v0.641h-1.283v3.665h-0.825v-3.665H471.664z"/>
	<path d="M477.895,134.782c0,1.466-0.916,2.291-2.107,2.291c-1.191,0-2.016-0.916-2.016-2.199c0-1.374,0.825-2.291,2.107-2.291
		S477.895,133.591,477.895,134.782z M474.688,134.874c0,0.916,0.458,1.558,1.191,1.558s1.191-0.733,1.191-1.649
		c0-0.825-0.367-1.558-1.191-1.558C475.055,133.224,474.688,133.957,474.688,134.874z M476.154,131.667l0.641,0.733h-0.55
		l-0.275-0.458l0,0l-0.366,0.458h-0.55l0.55-0.733H476.154z M476.704,132.033c0.092-0.275,0.367-0.367,0.367-0.55
		c0-0.092-0.092-0.183-0.183-0.183s-0.275,0.092-0.275,0.275l-0.275-0.183c0.092-0.275,0.367-0.458,0.641-0.458
		c0.275,0,0.55,0.183,0.55,0.458c0,0.367-0.275,0.367-0.458,0.733L476.704,132.033z"/>
	<path d="M478.628,137.073v-4.398h0.916l1.1,1.833c0.275,0.458,0.55,1.008,0.733,1.466l0,0c-0.092-0.55-0.092-1.191-0.092-1.833
		v-1.466h0.733v4.398h-0.825l-1.1-1.924c-0.275-0.458-0.55-1.008-0.825-1.466l0,0c0,0.55,0,1.1,0,1.833v1.558H478.628z"/>
	<path d="M486.508,136.798c-0.275,0.092-0.825,0.275-1.374,0.275c-0.733,0-1.283-0.183-1.741-0.55
		c-0.367-0.367-0.641-0.916-0.641-1.649c0-1.374,1.008-2.291,2.474-2.291c0.55,0,0.916,0.092,1.191,0.183l-0.183,0.641
		c-0.275-0.092-0.55-0.183-1.008-0.183c-0.916,0-1.558,0.55-1.558,1.558c0,1.008,0.641,1.558,1.558,1.558
		c0.275,0,0.458,0,0.641-0.092v-1.1h-0.733v-0.641h1.558v2.291H486.508z"/>
	<path d="M489.44,132.674v1.741h1.833v-1.741h0.825v4.398h-0.825v-1.924h-1.833v1.924h-0.825v-4.398H489.44z"/>
	<path d="M496.954,132.125c0.092,0.183,0.092,0.367,0.092,0.641c0,0.367-0.183,0.641-0.641,0.641
		c0.275,0.367,0.458,0.825,0.458,1.466c0,1.466-0.916,2.291-2.107,2.291c-1.191,0-2.016-0.916-2.016-2.199
		c0-1.374,0.825-2.291,2.107-2.291c0.275,0,0.55,0.092,0.733,0.092c0.183,0.092,0.458,0.183,0.641,0.183s0.275-0.092,0.275-0.275
		s-0.092-0.275-0.092-0.458L496.954,132.125z M496.037,134.874c0-0.825-0.366-1.558-1.191-1.558c-0.825,0-1.191,0.733-1.191,1.649
		c0,0.825,0.458,1.558,1.191,1.558C495.579,136.431,496.037,135.79,496.037,134.874z M494.388,137.989
		c0-0.183,0.183-0.367,0.366-0.367s0.367,0.183,0.367,0.367s-0.183,0.367-0.367,0.367S494.388,138.172,494.388,137.989z"/>
	<path d="M497.595,132.766c0.275-0.092,0.641-0.092,1.191-0.092s1.008,0.092,1.283,0.367c0.275,0.183,0.458,0.55,0.458,1.008
		s-0.092,0.733-0.367,1.008s-0.825,0.458-1.374,0.458c-0.183,0-0.275,0-0.367,0v1.649h-0.825V132.766z M498.328,134.782
		c0.092,0,0.183,0,0.367,0c0.641,0,0.916-0.275,0.916-0.825c0-0.458-0.367-0.733-0.916-0.733c-0.183,0-0.367,0-0.458,0v1.558
		H498.328z"/>
	<path d="M502.543,132.766c0.367-0.092,0.825-0.092,1.283-0.092c0.825,0,1.374,0.183,1.741,0.55
		c0.458,0.367,0.641,0.825,0.641,1.649c0,0.733-0.275,1.374-0.641,1.741c-0.458,0.367-1.1,0.641-2.016,0.641
		c-0.458,0-0.825,0-1.1-0.092v-4.398H502.543z M503.368,136.431c0.092,0,0.275,0,0.458,0c1.008,0,1.649-0.55,1.649-1.649
		c0-1.008-0.55-1.558-1.558-1.558c-0.275,0-0.458,0-0.55,0V136.431z"/>
	<path d="M507.766,135.79l-0.367,1.283h-0.825l1.374-4.398h1.008l1.374,4.398h-0.825l-0.367-1.283H507.766z M508.682,131.667
		l0.641,0.733h-0.55l-0.275-0.458l0,0l-0.275,0.458h-0.55l0.55-0.733H508.682z M508.957,135.24l-0.367-1.1
		c-0.092-0.275-0.183-0.55-0.183-0.825l0,0c-0.092,0.275-0.092,0.55-0.183,0.825l-0.367,1.1H508.957z M509.415,131.3l0.458,0.733
		h-0.458l-0.733-0.733H509.415z"/>
	<path d="M511.523,132.674v2.566c0,0.825,0.366,1.283,0.916,1.283c0.55,0,0.916-0.367,0.916-1.283v-2.566h0.825v2.474
		c0,1.374-0.733,1.924-1.741,1.924c-1.008,0-1.649-0.55-1.649-1.924v-2.474H511.523z"/>
	<path d="M516.471,132.674h0.825v2.016l0,0c0.092-0.183,0.183-0.367,0.275-0.458l1.1-1.558h1.008l-1.466,1.833l1.558,2.474h-0.916
		l-1.283-2.016l-0.367,0.458v1.558h-0.825v-4.307H516.471z"/>
	<path d="M521.052,132.674v1.741h1.833v-1.741h0.825v4.398h-0.825v-1.924h-1.833v1.924h-0.825v-4.398H521.052z"/>
	<path d="M526,131.667l-0.825,0.733h-0.641l0.55-0.733H526z M525.359,132.674v4.398h-0.825v-4.398H525.359z"/>
</g>
</svg>
